SplineFontDB: 3.0
FontName: OxygenSans-Heavy
FullName: OxygenSans Heavy
FamilyName: OxygenSans
Weight: Bold
ItalicAngle: 0
UnderlinePosition: 0
UnderlineWidth: 0
Ascent: 1638
Descent: 410
UFOAscent: 2002
UFODescent: -649
LayerCount: 2
Layer: 0 0 "Back"  1
Layer: 1 0 "Fore"  0
OS2Version: 0
OS2_WeightWidthSlopeOnly: 0
OS2_UseTypoMetrics: 0
CreationTime: 1363987796
ModificationTime: 1363987805
PfmFamily: 0
TTFWeight: 655
TTFWidth: 5
LineGap: 0
VLineGap: 0
OS2TypoAscent: 1604
OS2TypoAOffset: 0
OS2TypoDescent: -362
OS2TypoDOffset: 0
OS2TypoLinegap: 0
OS2WinAscent: 1600
OS2WinAOffset: 0
OS2WinDescent: 448
OS2WinDOffset: 0
HheadAscent: 0
HheadAOffset: 1
HheadDescent: 0
HheadDOffset: 1
OS2SubXSize: -1904
OS2SubYSize: -1758
OS2SubXOff: 0
OS2SubYOff: -219
OS2SupXSize: -1904
OS2SupYSize: -1758
OS2SupXOff: 0
OS2SupYOff: -1024
OS2StrikeYSize: -72
OS2StrikeYPos: -872
OS2Vendor: 'PfEd'
DEI: 91125
Encoding: UnicodeBmp
Compacted: 1
UnicodeInterp: none
NameList: AGL For New Fonts
DisplaySize: -48
AntiAlias: 1
FitToEm: 1
WinInfo: 0 19 10
BeginPrivate: 7
BlueFuzz 1 1
BlueScale 9 0.0356625
BlueShift 1 6
BlueValues 26 [-23 14 914 937 1193 1238]
OtherBlues 11 [-395 -149]
StemSnapH 36 [18 143 162 166 173 178 182 196 207]
StemSnapV 29 [171 208 221 221 228 230 259]
EndPrivate
BeginChars: 65538 579

StartChar: .notdef
Encoding: 65536 -1 0
Width: 1013
VWidth: 0
Flags: HW
HStem: 352 93 613 93
VStem: 92 92 738 92
LayerCount: 2
UndoRedoHistory
Layer: 1
Undoes
EndUndoes
Redoes
EndRedoes
EndUndoRedoHistory
Fore
SplineSet
105.5 -437.3 m 1
 105.5 1489 l 1
 954.2 1489 l 1
 954.2 -437.3 l 1
 105.5 -437.3 l 1
211 -331.7 m 1
 848.7 -331.7 l 1
 848.7 1383.4 l 1
 211 1383.4 l 1
 211 -331.7 l 1
EndSplineSet
EndChar

StartChar: A
Encoding: 65 65 1
Width: 1457
VWidth: 0
Flags: HW
LayerCount: 2
UndoRedoHistory
Layer: 1
Undoes
EndUndoes
Redoes
EndRedoes
EndUndoRedoHistory
Fore
SplineSet
49 0 m 1
 556.5 1422.9 l 1
 903 1422.9 l 1
 1408.7 0 l 1
 1117.3 0 l 1
 972.495111305 394 l 1
 482.112810542 394 l 1
 343.8 0 l 1
 49 0 l 1
914.14988647 582.9 m 1
 732.376039381 1177.45692143 l 1
 541.648145183 582.9 l 1
 914.14988647 582.9 l 1
EndSplineSet
EndChar

StartChar: B
Encoding: 66 66 13
Width: 1381
VWidth: 0
Flags: HW
LayerCount: 2
UndoRedoHistory
Layer: 1
Undoes
EndUndoes
Redoes
EndRedoes
EndUndoRedoHistory
Fore
SplineSet
185.4 0 m 1
 185.4 1422.9 l 1
 682.9 1422.9 l 2
 1031.7 1422.9 1226.9 1330.3 1226.9 1066.4 c 0
 1226.90000003 931.87869498 1160.94862987 832.48904152 1029.6996309 763.833143354 c 1
 1171.06361621 707.091927402 1278 600.512182724 1278 416.4 c 0
 1278 146.8 1077.2 0 756.8 0 c 2
 185.4 0 l 1
469.4 1214.6 m 1
 469.4 841.4 l 1
 702.9 841.4 l 2
 866.4 841.4 950.9 889.4 950.9 1027.4 c 0
 950.9 1178.7 854.9 1214.6 651.8 1214.6 c 2
 469.4 1214.6 l 1
469.4 653.8 m 1
 469.4 213.7 l 1
 706.5 213.7 l 2
 902 213.7 994 278.2 994 434.2 c 0
 994 592.4 899.4 653.8 692.8 653.8 c 2
 469.4 653.8 l 1
EndSplineSet
EndChar

StartChar: C
Encoding: 67 67 14
Width: 1310
VWidth: 0
Flags: HW
LayerCount: 2
UndoRedoHistory
Layer: 1
Undoes
EndUndoes
Redoes
EndRedoes
EndUndoRedoHistory
Fore
SplineSet
823.5 -19 m 0
 433.8 -19 125.9 221.9 125.9 716.4 c 0
 125.9 1212.8 460.1 1441 824.7 1441 c 0
 975.9 1441 1121.1 1399.3 1232 1328.1 c 1
 1155.1 1136.8 l 1
 1066.3 1186.6 949.4 1216.3 843.2 1216.3 c 0
 615.2 1216.3 410.8 1069.2 410.8 713 c 0
 410.8 345.1 618.9 210.2 851 210.2 c 0
 960.1 210.2 1096.2 241.8 1174.3 278.5 c 1
 1228.2 66.1 l 1
 1116.9 14.2 958.4 -19 823.5 -19 c 0
EndSplineSet
EndChar

StartChar: D
Encoding: 68 68 21
Width: 1551
VWidth: 0
Flags: HW
HStem: 0 94 1355 94
VStem: 1280 122
LayerCount: 2
UndoRedoHistory
Layer: 1
Undoes
EndUndoes
Redoes
EndRedoes
EndUndoRedoHistory
Fore
SplineSet
185.4 0 m 1
 185.4 1422.9 l 1
 620 1422.9 l 2
 1089.8 1422.9 1427.7 1198.3 1427.7 718 c 0
 1427.7 255.8 1109.2 0 644.7 0 c 2
 185.4 0 l 1
469.4 1214.6 m 1
 469.4 213.7 l 1
 655.3 213.7 l 2
 971.7 213.7 1144.6 392.8 1144.6 713 c 0
 1144.6 1062.5 960.7 1214.6 628.3 1214.6 c 2
 469.4 1214.6 l 1
EndSplineSet
EndChar

StartChar: Dcroat
Encoding: 272 272 23
Width: 1460
VWidth: 0
Flags: HW
LayerCount: 2
UndoRedoHistory
Layer: 1
Undoes
EndUndoes
Redoes
EndRedoes
EndUndoRedoHistory
Fore
SplineSet
60.1 686.3 m 1
 60.1 775.5 l 1
 572.1 775.5 l 1
 572.1 686.3 l 1
 60.1 686.3 l 1
EndSplineSet
Refer: 21 68 N 1 0 0 1 0 0 2
EndChar

StartChar: Delta
Encoding: 916 916 24
Width: 1162
VWidth: 0
Flags: HW
LayerCount: 2
UndoRedoHistory
Layer: 1
Undoes
EndUndoes
Redoes
EndRedoes
EndUndoRedoHistory
Fore
SplineSet
286.8 188.3 m 1
 950 188.3 l 1
 615.4 1200.4 l 1
 286.8 188.3 l 1
2.9 0 m 1
 504.2 1444.3 l 1
 725.9 1444.3 l 1
 1226.5 0 l 1
 2.9 0 l 1
EndSplineSet
EndChar

StartChar: E
Encoding: 69 69 25
Width: 1239
VWidth: 0
Flags: HW
LayerCount: 2
UndoRedoHistory
Layer: 1
Undoes
EndUndoes
Redoes
EndRedoes
EndUndoRedoHistory
Fore
SplineSet
185.4 0 m 1
 185.4 1422.9 l 1
 1109.5 1422.9 l 1
 1099.2 1214.6 l 1
 469.4 1214.6 l 1
 469.4 849.6 l 1
 1065.5 849.6 l 1
 1065.5 641.3 l 1
 469.4 641.3 l 1
 469.4 213.7 l 1
 1119.4 213.7 l 1
 1102.3 0 l 1
 185.4 0 l 1
EndSplineSet
EndChar

StartChar: Eng
Encoding: 330 330 34
Width: 1263
VWidth: 0
Flags: HW
LayerCount: 2
UndoRedoHistory
Layer: 1
Undoes
EndUndoes
Redoes
EndRedoes
EndUndoRedoHistory
Fore
SplineSet
782.2 -319.4 m 0
 772.6 -319.4 729.5 -319.2 678.1 -313.9 c 1
 657 -92.6 l 1
 714.8 -96.4 770.2 -97.4 777.8 -97.4 c 0
 962.6 -97.4 989.6 -39.6 989.6 149.3 c 2
 989.6 917.4 l 2
 989.6 1146.9 925.9 1229.6 762.2 1229.6 c 0
 633.7 1229.6 472.1 1160.1 387.6 1017.9 c 1
 387.6 0 l 1
 109.1 0 l 1
 108.7 1415.1 l 1
 357.5 1415.1 l 1
 379.5 1252.5 l 1
 491.1 1373.2 670.8 1437.3 823.1 1437.3 c 0
 1118.9 1437.3 1268.9 1245.9 1268.9 927.5 c 2
 1268.9 151.6 l 2
 1268.9 -153 1141.1 -319.4 782.2 -319.4 c 0
EndSplineSet
EndChar

StartChar: Eth
Encoding: 208 208 37
Width: 1464
VWidth: 0
Flags: HW
LayerCount: 2
UndoRedoHistory
Layer: 1
Undoes
EndUndoes
Redoes
EndRedoes
EndUndoRedoHistory
Fore
SplineSet
662.3 803.6 m 1
 662.3 632.1 l 1
 21.7 632.1 l 1
 21.7 803.6 l 1
 662.3 803.6 l 1
EndSplineSet
Refer: 21 68 N 1 0 0 1 0 0 2
EndChar

StartChar: Euro
Encoding: 8364 8364 38
Width: 1243
VWidth: 0
Flags: HW
LayerCount: 2
UndoRedoHistory
Layer: 1
Undoes
EndUndoes
Redoes
EndRedoes
EndUndoRedoHistory
Fore
SplineSet
1186.4 65.2 m 1
 1071.3 11.1 945 -19 813.3 -19 c 0
 499.625609871 -19 221.061040602 144.691433934 135.692084803 494.9 c 1
 -2.4 494.9 l 1
 -1.3 632.1 l 1
 118.869911026 632.1 l 1
 117.641584781 662.454014191 116.7 698.228777876 116.7 716.4 c 0
 116.7 723.511613082 116.787560666 741.458858571 117.003648944 760 c 1
 -1.5 760 l 1
 -0.5 896.9 l 1
 126.673133538 896.9 l 1
 204.532292883 1275.30799659 504.324914105 1441 807.6 1441 c 0
 958.8 1441 1104.9 1399.3 1215.8 1328.1 c 1
 1134.4 1133.2 l 1
 1045.6 1183 932.3 1212.7 826.1 1212.7 c 0
 655.004630793 1212.7 482.951912046 1126.97370026 419.389549944 896.9 c 1
 844.8 896.9 l 1
 843.7 760 l 1
 401.935328002 760 l 1
 401.693070252 740.289065531 401.6 720.862543362 401.6 713 c 0
 401.6 695.250617763 402.154620992 661.219147832 403.089320778 632.1 c 1
 843.7 632.1 l 1
 842.6 494.9 l 1
 431.18390476 494.9 l 1
 503.155665781 281.828341877 671.763787694 210.2 841.7 210.2 c 0
 945.8 210.2 1050.3 238 1133.5 277.3 c 1
 1186.4 65.2 l 1
EndSplineSet
EndChar

StartChar: F
Encoding: 70 70 39
Width: 1176
VWidth: 0
Flags: HW
LayerCount: 2
UndoRedoHistory
Layer: 1
Undoes
EndUndoes
Redoes
EndRedoes
EndUndoRedoHistory
Fore
SplineSet
185.4 0 m 1
 185.4 1422.9 l 1
 1124.5 1422.9 l 1
 1112.8 1205.6 l 1
 469.8 1205.6 l 1
 469.8 815.3 l 1
 1055.2 815.3 l 1
 1055.2 609.3 l 1
 469.8 609.3 l 1
 469.8 0 l 1
 185.4 0 l 1
EndSplineSet
EndChar

StartChar: G
Encoding: 71 71 40
Width: 1458
VWidth: 0
Flags: HW
LayerCount: 2
UndoRedoHistory
Layer: 1
Undoes
EndUndoes
Redoes
EndRedoes
EndUndoRedoHistory
Fore
SplineSet
809.2 -19 m 0
 385 -19 124.9 272.7 124.9 714.5 c 0
 124.9 1171.8 442 1441 839.9 1441 c 0
 1013.9 1441 1139 1406.6 1282.7 1331.5 c 1
 1214.8 1123.1 l 1
 1093.6 1183 975.9 1218.1 854.8 1218.1 c 0
 585.7 1218.1 409.8 1031.4 409.8 717.3 c 0
 409.8 407.9 538.3 209.3 823 209.3 c 0
 944.978112435 209.3 1015.61521676 225.751375663 1067 246.304616685 c 1
 1067 552.2 l 1
 762.6 552.2 l 1
 763.6 759 l 1
 1312.3 759 l 1
 1312.3 83.8 l 1
 1158.5 17.4 1001.8 -19 809.2 -19 c 0
EndSplineSet
EndChar

StartChar: Gamma
Encoding: 915 915 41
Width: 1209
VWidth: 0
Flags: HW
LayerCount: 2
UndoRedoHistory
Layer: 1
Undoes
EndUndoes
Redoes
EndRedoes
EndUndoRedoHistory
Fore
SplineSet
229 0 m 1
 229 1449 l 1
 1081 1448 l 1
 1076 1354 l 1
 351 1354.9452412 l 1
 351 0 l 1
 229 0 l 1
EndSplineSet
EndChar

StartChar: H
Encoding: 72 72 47
Width: 1557
VWidth: 0
Flags: HW
LayerCount: 2
UndoRedoHistory
Layer: 1
Undoes
EndUndoes
Redoes
EndRedoes
EndUndoRedoHistory
Fore
SplineSet
185.1 0 m 1
 185.1 1422.9 l 1
 469.1 1422.9 l 1
 469.1 837.5 l 1
 1088.5 837.5 l 1
 1088.5 1422.9 l 1
 1372.5 1422.9 l 1
 1372.5 0 l 1
 1088.5 0 l 1
 1088.5 625.4 l 1
 469.1 625.4 l 1
 469.1 0 l 1
 185.1 0 l 1
EndSplineSet
EndChar

StartChar: Hbar
Encoding: 294 294 48
Width: 1347
VWidth: 0
Flags: HW
LayerCount: 2
UndoRedoHistory
Layer: 1
Undoes
EndUndoes
Redoes
EndRedoes
EndUndoRedoHistory
Fore
SplineSet
383.8 825.7 m 1
 1037.8 825.7 l 1
 1037.8 1118.8 l 1
 383.8 1118.8 l 1
 383.8 825.7 l 1
132.3 0 m 1
 132.3 1118.8 l 1
 51.8 1118.8 l 1
 51.8 1255.6 l 1
 132.3 1255.6 l 1
 132.3 1409.2 l 1
 383.8 1409.2 l 1
 383.8 1255.6 l 1
 1037.8 1255.6 l 1
 1037.8 1409.2 l 1
 1291.1 1409.2 l 1
 1291.1 1255.6 l 1
 1371.6 1255.6 l 1
 1371.6 1118.8 l 1
 1291.1 1118.8 l 1
 1291.1 0 l 1
 1037.8 0 l 1
 1037.8 632.9 l 1
 383.8 632.9 l 1
 383.8 0 l 1
 132.3 0 l 1
EndSplineSet
EndChar

StartChar: I
Encoding: 73 73 50
Width: 855
VWidth: 0
Flags: HW
HStem: 0 86 1363 86
VStem: 111 529
LayerCount: 2
UndoRedoHistory
Layer: 1
Undoes
EndUndoes
Redoes
EndRedoes
EndUndoRedoHistory
Fore
SplineSet
119.4 1422.9 m 1
 735.7 1422.9 l 1
 735.7 1254.1 l 1
 571.4 1254.1 l 1
 571.4 167.9 l 1
 735.7 167.9 l 1
 735.7 0 l 1
 119.4 0 l 1
 119.4 167.9 l 1
 287.4 167.9 l 1
 287.4 1254.1 l 1
 119.4 1254.1 l 1
 119.4 1422.9 l 1
EndSplineSet
EndChar

StartChar: J
Encoding: 74 74 61
Width: 881
VWidth: 0
Flags: HW
LayerCount: 2
UndoRedoHistory
Layer: 1
Undoes
EndUndoes
Redoes
EndRedoes
EndUndoRedoHistory
Fore
SplineSet
212.2 -223.7 m 2
 16 -223.7 l 1
 16 2.3 l 1
 175.3 2.3 l 2
 351.7 2.3 411.9 182.6 411.9 302.7 c 2
 411.9 1422.9 l 1
 696.8 1422.9 l 1
 696.8 313.1 l 2
 696.8 -13.5 506 -223.7 212.2 -223.7 c 2
EndSplineSet
EndChar

StartChar: K
Encoding: 75 75 63
Width: 1414
VWidth: 0
Flags: HW
LayerCount: 2
UndoRedoHistory
Layer: 1
Undoes
EndUndoes
Redoes
EndRedoes
EndUndoRedoHistory
Fore
SplineSet
185.4 0 m 1
 185.4 1422.9 l 1
 469.4 1422.9 l 1
 469.4 787.61520693 l 1
 1028.3 1422.9 l 1
 1356.8 1422.9 l 1
 816.62207894 784.680736807 l 1
 1389.5 0 l 1
 1062.6 0 l 1
 596.723365318 658.083814881 l 1
 469.4 548.844057971 l 1
 469.4 0 l 1
 185.4 0 l 1
EndSplineSet
EndChar

StartChar: L
Encoding: 76 76 65
Width: 1162
VWidth: 0
Flags: HW
LayerCount: 2
UndoRedoHistory
Layer: 1
Undoes
EndUndoes
Redoes
EndRedoes
EndUndoRedoHistory
Fore
SplineSet
185.4 0 m 1
 185.4 1422.9 l 1
 469.4 1422.9 l 1
 469.4 213.7 l 1
 1110 213.7 l 1
 1097.4 0 l 1
 185.4 0 l 1
EndSplineSet
EndChar

StartChar: Lambda
Encoding: 923 923 67
Width: 1162
VWidth: 0
Flags: HW
LayerCount: 2
UndoRedoHistory
Layer: 1
Undoes
EndUndoes
Redoes
EndRedoes
EndUndoRedoHistory
Fore
SplineSet
2.1 0 m 1
 522.3 1439.2 l 1
 706.2 1439.2 l 1
 1226.5 0 l 1
 1038.3 0 l 1
 614.6 1221.2 l 1
 195.3 0 l 1
 2.1 0 l 1
EndSplineSet
EndChar

StartChar: M
Encoding: 77 77 71
Width: 1904
VWidth: 0
Flags: HW
LayerCount: 2
UndoRedoHistory
Layer: 1
Undoes
EndUndoes
Redoes
EndRedoes
EndUndoRedoHistory
Fore
SplineSet
167 0 m 1
 204.5 1422.9 l 1
 490.8 1422.9 l 1
 951.660087934 509.781338544 l 1
 1417.5 1422.9 l 1
 1698.5 1422.9 l 1
 1736.2 0 l 1
 1466.7 0 l 1
 1456.1 567.3 l 1
 1456.1 979.49728368 l 1
 1051.5 199.9 l 1
 843 199.9 l 1
 448.2 981.854694889 l 1
 448.2 564.2 l 1
 437.6 0 l 1
 167 0 l 1
EndSplineSet
EndChar

StartChar: N
Encoding: 78 78 73
Width: 1605
VWidth: 0
Flags: HW
LayerCount: 2
UndoRedoHistory
Layer: 1
Undoes
EndUndoes
Redoes
EndRedoes
EndUndoRedoHistory
Fore
SplineSet
185.4 0 m 1
 185.4 1422.9 l 1
 486.3 1422.9 l 1
 1157.12801607 351.630146267 l 1
 1140.5 820 l 1
 1140.5 1422.9 l 1
 1420 1422.9 l 1
 1420 0 l 1
 1107.9 0 l 1
 444.706776968 1045.88922953 l 1
 465 476.4 l 1
 465 0 l 1
 185.4 0 l 1
EndSplineSet
EndChar

StartChar: O
Encoding: 79 79 78
Width: 1656
VWidth: 0
Flags: HW
HStem: -19 96 1372 96
VStem: 150 122 1390 122
LayerCount: 2
UndoRedoHistory
Layer: 1
Undoes
EndUndoes
Redoes
EndRedoes
EndUndoRedoHistory
Fore
SplineSet
829.7 -19 m 0
 411.8 -19 125.9 257.3 125.9 709.4 c 0
 125.9 1166.6 414.9 1441 829.8 1441 c 0
 1243.4 1441 1530.2 1166.1 1530.2 709.1 c 0
 1530.2 258.1 1246.8 -19 829.7 -19 c 0
829.5 205.7 m 0
 1084.3 205.7 1246.2 411.3 1246.2 707.6 c 0
 1246.2 1010.1 1082.4 1214.5 829.7 1214.5 c 0
 577.1 1214.5 410.8 1010.4 410.8 707.6 c 0
 410.8 411.3 574.7 205.7 829.5 205.7 c 0
EndSplineSet
EndChar

StartChar: OE
Encoding: 338 338 79
Width: 1924
VWidth: 0
Flags: HW
LayerCount: 2
UndoRedoHistory
Layer: 1
Undoes
EndUndoes
Redoes
EndRedoes
EndUndoRedoHistory
Fore
SplineSet
771.1 184 m 0
 856.9 184.6 944.2 259.6 1001.8 350.1 c 1
 1003 388.4 1024.5 1130 1058.8 1130 c 1
 1010.9 1189.4 924.5 1231.5 799.2 1225.8 c 1
 552.6 1225.8 419.4 893 417.6 650.9 c 1
 414.3 407 522.7 184.9 771.1 184 c 0
772.5 -18.8 m 0
 416 -18.8 177 263.7 178.2 647.6 c 1
 180.9 1022.9 446.4 1287.6 799.2 1287.6 c 0
 914.4 1287.6 1066.9 1258.8 1147 1207.5 c 1
 1148.2 1275.1 l 1
 1902.9 1275.1 l 1
 1885.8 1140.8 l 1
 1373.8 1140.8 l 1
 1373.8 834.4 l 1
 1861.5 834.4 l 1
 1861.5 700 l 1
 1377.9 700 l 1
 1379.3 343.2 l 1
 1917 343.2 l 1
 1899.9 141.7 l 1
 1894 148.4 1071.6 153.7 1056.1 153.7 c 0
 1017.6 153.7 991.2 182.4 989.7 139.9 c 1
 917.7 47 831.8 -18.8 772.5 -18.8 c 0
EndSplineSet
EndChar

StartChar: Omega
Encoding: 937 937 88
Width: 1563
VWidth: 0
Flags: HW
LayerCount: 2
UndoRedoHistory
Layer: 1
Undoes
EndUndoes
Redoes
EndRedoes
EndUndoRedoHistory
Fore
SplineSet
817.8 -19.2 m 0
 401.7 -19.2 113.9 256.4 113.9 709.6 c 0
 113.9 1167.5 404.3 1440.4 817.9 1440.4 c 0
 1230.7 1440.4 1519.1 1167.2 1519.1 709.5 c 0
 1519.1 257 1233.4 -19.2 817.8 -19.2 c 0
817.8 210.6 m 0
 1066.9 210.6 1228.5 414.5 1228.5 707.7 c 0
 1228.5 1006.7 1065.4 1208.7 817.9 1208.7 c 0
 570.4 1208.7 405.2 1006.8 405.2 707.7 c 0
 405.2 414.5 568.7 210.6 817.8 210.6 c 0
EndSplineSet
EndChar

StartChar: Oslash
Encoding: 216 216 89
Width: 1563
VWidth: 0
Flags: HW
LayerCount: 2
UndoRedoHistory
Layer: 1
Undoes
EndUndoes
Redoes
EndRedoes
EndUndoRedoHistory
Fore
SplineSet
540.7 -237.4 m 1
 413.8 -192.4 l 1
 1124.2 1643.1 l 1
 1257 1593.1 l 1
 540.7 -237.4 l 1
EndSplineSet
Refer: 78 79 N 1 0 0 1 0 0 2
EndChar

StartChar: P
Encoding: 80 80 92
Width: 1338
VWidth: 0
Flags: HW
LayerCount: 2
UndoRedoHistory
Layer: 1
Undoes
EndUndoes
Redoes
EndRedoes
EndUndoRedoHistory
Fore
SplineSet
185.4 0 m 1
 185.4 1422.9 l 1
 727.6 1422.9 l 2
 1035.5 1422.9 1263.6 1342.7 1263.6 1047.9 c 0
 1263.6 793.9 1125.1 627.7 727.1 627.7 c 2
 469.4 627.7 l 1
 469.4 0 l 1
 185.4 0 l 1
469.4 1214.6 m 1
 469.4 844.1 l 1
 703.5 844.1 l 2
 925.7 844.1 979.6 910.3 979.6 1039.9 c 0
 979.6 1170 898.9 1214.6 728.3 1214.6 c 2
 469.4 1214.6 l 1
EndSplineSet
EndChar

StartChar: Phi
Encoding: 934 934 93
Width: 1488
VWidth: 0
Flags: HW
LayerCount: 2
UndoRedoHistory
Layer: 1
Undoes
EndUndoes
Redoes
EndRedoes
EndUndoRedoHistory
Fore
SplineSet
871.7 329.6 m 1
 1152.7 359.2 1279.4 528.7 1279.4 741.9 c 0
 1279.4 958.7 1145.9 1113.3 871.7 1140.1 c 1
 871.7 329.6 l 1
690 329.6 m 1
 690 1140.1 l 1
 421.6 1112.3 287.2 961.3 287.2 741.9 c 0
 287.2 531.4 408.7 361.1 690 329.6 c 1
690 0 m 1
 690 162.5 l 1
 301.4 195.8 92.7 431.7 92.7 741.9 c 0
 92.7 1055.5 310.3 1275.7 690 1307.1 c 1
 690 1439.2 l 1
 871.7 1439.2 l 1
 871.7 1307.1 l 1
 1251.3 1277.6 1474.7 1058.2 1474.7 741.9 c 0
 1474.7 432.3 1266.7 194.6 871.7 162.5 c 1
 871.7 0 l 1
 690 0 l 1
EndSplineSet
EndChar

StartChar: Pi
Encoding: 928 928 94
Width: 1306
VWidth: 0
Flags: HW
LayerCount: 2
UndoRedoHistory
Layer: 1
Undoes
EndUndoes
Redoes
EndRedoes
EndUndoRedoHistory
Fore
SplineSet
133.3 0 m 1
 133.3 1439.2 l 1
 1243.8 1439.2 l 1
 1243.8 0 l 1
 1060.5 0 l 1
 1060.5 1279.8 l 1
 316.9 1279.8 l 1
 316.9 0 l 1
 133.3 0 l 1
EndSplineSet
EndChar

StartChar: Q
Encoding: 81 81 95
Width: 1654
VWidth: 0
Flags: HW
LayerCount: 2
UndoRedoHistory
Layer: 1
Undoes
EndUndoes
Redoes
EndRedoes
EndUndoRedoHistory
Fore
SplineSet
1223 -475.6 m 1
 1113.5 -396 970.9 -166.4 888.9 -14.4 c 1
 1124.5 42.6 l 1
 1172 -39.7 1275.7 -216.8 1389 -330.4 c 1
 1223 -475.6 l 1
EndSplineSet
Refer: 78 79 N 1 0 0 1 0 0 2
EndChar

StartChar: R
Encoding: 82 82 96
Width: 1423
VWidth: 0
Flags: HW
HStem: 722 96 1355 94
VStem: 1122 117
LayerCount: 2
UndoRedoHistory
Layer: 1
Undoes
EndUndoes
Redoes
EndRedoes
EndUndoRedoHistory
Fore
SplineSet
185.4 0 m 1
 185.4 1422.9 l 1
 747.6 1422.9 l 2
 1066.1 1422.9 1275.5 1336.1 1275.5 1019.3 c 0
 1275.5 801.892544246 1171.00601687 706.228628635 1037.40096063 649.742821886 c 1
 1136.3 425.5 l 1
 1329.3 0 l 1
 1030.7 0 l 1
 872.6 363.7 l 1
 775.548840292 608.6 l 1
 469.4 608.6 l 1
 469.4 0 l 1
 185.4 0 l 1
469.4 1214.6 m 1
 469.4 797.4 l 1
 747.1 797.4 l 2
 946 797.4 992 864.1 992 1015.5 c 0
 992 1146.5 937.7 1214.6 760 1214.6 c 2
 469.4 1214.6 l 1
EndSplineSet
EndChar

StartChar: S
Encoding: 83 83 100
Width: 1232
VWidth: 0
Flags: HW
LayerCount: 2
UndoRedoHistory
Layer: 1
Undoes
EndUndoes
Redoes
EndRedoes
EndUndoRedoHistory
Fore
SplineSet
607.4 -19 m 0
 413.4 -19 256 28.8 141.2 95.3 c 1
 225.2 308.1 l 1
 307.8 253.9 471.9 205.7 616.9 205.7 c 0
 772.7 205.7 851.4 263.1 852.4 399.9 c 0
 853.1 491.5 795 545.8 681.6 584.9 c 1
 441 665.3 l 2
 269.3 723.1 158.9 842.3 158.9 1042.2 c 0
 158.9 1309.3 370.6 1441 645.6 1441 c 0
 813.1 1441 970.1 1398 1090.8 1327.7 c 1
 1007.8 1115.8 l 1
 917.6 1155.6 785.5 1214.5 655.1 1214.5 c 0
 512.6 1214.5 424.6 1169.2 424.6 1048.7 c 0
 424.6 972.7 464.6 923.8 539.2 898.1 c 2
 764 820.4 l 1
 1005.6 738 1121.9 627.6 1120.5 396.7 c 0
 1118.9 120.1 905.9 -19 607.4 -19 c 0
EndSplineSet
EndChar

StartChar: Sigma
Encoding: 931 931 106
Width: 1028
VWidth: 0
Flags: HW
LayerCount: 2
UndoRedoHistory
Layer: 1
Undoes
EndUndoes
Redoes
EndRedoes
EndUndoRedoHistory
Fore
SplineSet
135.8 0 m 1
 135.8 1412.4 l 1
 1006.7 1412.4 l 1
 995.5 1195.3 l 1
 418.1 1195.3 l 1
 418.1 839.7 l 1
 962.9 839.7 l 1
 962.9 632.2 l 1
 418.1 632.2 l 1
 418.1 217.1 l 1
 1015 217.1 l 1
 1007.9 0 l 1
 135.8 0 l 1
EndSplineSet
EndChar

StartChar: T
Encoding: 84 84 107
Width: 1199
VWidth: 0
Flags: HW
LayerCount: 2
UndoRedoHistory
Layer: 1
Undoes
EndUndoes
Redoes
EndRedoes
EndUndoRedoHistory
Fore
SplineSet
457.2 0 m 1
 457.2 1196.3 l 1
 52.4 1196.3 l 1
 52.4 1422.9 l 1
 1147.5 1422.9 l 1
 1147.5 1196.3 l 1
 742.1 1196.3 l 1
 742.1 0 l 1
 457.2 0 l 1
EndSplineSet
EndChar

StartChar: U
Encoding: 85 85 112
Width: 1522
VWidth: 0
Flags: HW
LayerCount: 2
UndoRedoHistory
Layer: 1
Undoes
EndUndoes
Redoes
EndRedoes
EndUndoRedoHistory
Fore
SplineSet
761.9 -19 m 0
 393.6 -19 159.3 181.8 159.3 511.8 c 2
 159.3 1422.9 l 1
 444.2 1422.9 l 1
 444.2 529.5 l 2
 444.2 315.5 564.4 209.3 761.9 209.3 c 0
 963.2 209.3 1079.4 316.3 1079.4 530.3 c 2
 1079.4 1422.9 l 1
 1363.4 1422.9 l 1
 1363.4 510.6 l 2
 1363.4 184.5 1128.8 -19 761.9 -19 c 0
EndSplineSet
EndChar

StartChar: V
Encoding: 86 86 125
Width: 1423
VWidth: 0
Flags: HW
LayerCount: 2
UndoRedoHistory
Layer: 1
Undoes
EndUndoes
Redoes
EndRedoes
EndUndoRedoHistory
Fore
SplineSet
552.5 0 m 1
 68.4 1422.9 l 1
 372.2 1422.9 l 1
 626 601.7 l 1
 715.751922535 305.741775891 l 1
 803.1 603.1 l 1
 1054.3 1422.9 l 1
 1355.3 1422.9 l 1
 869.5 0 l 1
 552.5 0 l 1
EndSplineSet
EndChar

StartChar: W
Encoding: 87 87 126
Width: 2027
VWidth: 0
Flags: HW
LayerCount: 2
UndoRedoHistory
Layer: 1
Undoes
EndUndoes
Redoes
EndRedoes
EndUndoRedoHistory
Fore
SplineSet
437.7 0 m 1
 45.8 1422.8 l 1
 323.5 1422.8 l 1
 581.34881498 373.29370818 l 1
 885.3 1412.4 l 1
 1142.7 1412.4 l 1
 1433.89996123 367.345933539 l 1
 1704.9 1422.8 l 1
 1982 1422.8 l 1
 1574.7 0 l 1
 1305.1 0 l 1
 1015.5889386 1037.25240666 l 1
 704.2 0 l 1
 437.7 0 l 1
EndSplineSet
EndChar

StartChar: X
Encoding: 88 88 131
Width: 1429
VWidth: 0
Flags: HW
LayerCount: 2
UndoRedoHistory
Layer: 1
Undoes
EndUndoes
Redoes
EndRedoes
EndUndoRedoHistory
Fore
SplineSet
1046.1 0 m 1
 712.594204526 505.642404241 l 1
 369.9 0 l 1
 78.7 0 l 1
 562.179687748 733.692288016 l 1
 107.6 1422.9 l 1
 406.7 1422.9 l 1
 729.526409843 936.969926409 l 1
 1043.9 1422.9 l 1
 1331.3 1422.9 l 1
 873.886368616 719.674057014 l 1
 1352 0 l 1
 1046.1 0 l 1
EndSplineSet
EndChar

StartChar: Y
Encoding: 89 89 132
Width: 1318
VWidth: 0
Flags: HW
LayerCount: 2
UndoRedoHistory
Layer: 1
Undoes
EndUndoes
Redoes
EndRedoes
EndUndoRedoHistory
Fore
SplineSet
521.5 0 m 1
 521.5 543.482993967 l 1
 52.1 1422.9 l 1
 349.6 1422.9 l 1
 658.651206094 789.569487939 l 1
 973.6 1422.9 l 1
 1266.7 1422.9 l 1
 799.4 545.917238734 l 1
 799.4 0 l 1
 521.5 0 l 1
EndSplineSet
EndChar

StartChar: Z
Encoding: 90 90 137
Width: 1248
VWidth: 0
Flags: HW
LayerCount: 2
UndoRedoHistory
Layer: 1
Undoes
EndUndoes
Redoes
EndRedoes
EndUndoRedoHistory
Fore
SplineSet
149.8 0 m 1
 149.8 172.9 l 1
 787.124271758 1214.6 l 1
 161.4 1214.6 l 1
 161.4 1422.9 l 1
 1121 1422.9 l 1
 1122 1237.6 l 1
 510.749552805 213.7 l 1
 1130.7 213.7 l 1
 1129.6 0 l 1
 149.8 0 l 1
EndSplineSet
EndChar

StartChar: a
Encoding: 97 97 141
Width: 1132
VWidth: 0
Flags: HW
HStem: -15 92 535 82 983 92
VStem: 126 120 842 32 875 86
LayerCount: 2
UndoRedoHistory
Layer: 1
Undoes
EndUndoes
Redoes
EndRedoes
EndUndoRedoHistory
Fore
SplineSet
495.8 163.4 m 0
 583.487138555 163.4 678.124325739 219.271875304 732.7 271.44097472 c 1
 732.7 498.52462908 l 1
 626.3 490 l 2
 428.8 474.7 344.6 428.4 344.6 301.1 c 0
 344.6 212.4 407 163.4 495.8 163.4 c 0
733.6 664.371490281 m 1
 733.6 723 l 2
 733.6 852.7 653.4 902.9 529.8 902.9 c 0
 432.6 902.9 310.6 872.9 202.1 832.6 c 1
 149.6 1003.3 l 1
 287.8 1061.2 436.3 1090.3 561.8 1090.3 c 0
 807.1 1090.3 986.7 981.1 986.7 693.9 c 2
 986.7 0.1 l 1
 798.1 0.1 l 1
 770.460574253 118.719202165 l 1
 692.7427303 35.0985192479 571.085908228 -18.6 443.8 -18.6 c 0
 258 -18.6 109.4 86.1 109.4 300.1 c 0
 109.4 534 267.3 630.5 543.1 650.3 c 2
 733.6 664.371490281 l 1
EndSplineSet
EndChar

StartChar: acute
Encoding: 180 180 145
Width: 552
VWidth: 0
Flags: HW
LayerCount: 2
UndoRedoHistory
Layer: 1
Undoes
EndUndoes
Redoes
EndRedoes
EndUndoRedoHistory
Fore
SplineSet
162.6 1078.9 m 1
 332.7 1457.2 l 1
 625.3 1457.2 l 1
 317.9 1078.9 l 1
 162.6 1078.9 l 1
EndSplineSet
EndChar

StartChar: ae
Encoding: 230 230 147
Width: 1624
VWidth: 0
Flags: HW
HStem: -14 98 518 82 983 92
VStem: 126 119 817 117 817 82 1556 98
LayerCount: 2
UndoRedoHistory
Layer: 1
Undoes
EndUndoes
Redoes
EndRedoes
EndUndoRedoHistory
Fore
SplineSet
943 619.3 m 1
 1283.9 619.3 1386.8 678.2 1386.8 776.5 c 0
 1386.8 875.9 1326.7 930.7 1219.7 930.7 c 0
 1101.5 930.7 965.9 860.6 943 619.3 c 1
443.3 153.4 m 0
 538.7 153.4 665.9 202.2 747.8 268.3 c 1
 733.8 301.2 711.7 386.5 708.1 454.1 c 1
 578.8 454.1 l 2
 379.2 454.1 312.5 393.7 312.5 296.3 c 0
 312.5 200.5 357.7 153.4 443.3 153.4 c 0
409.3 -19.4 m 0
 212.1 -19.4 85.5 119.6 85.5 310.4 c 0
 85.5 547.4 285.8 619.8 593.7 619.8 c 2
 703.6 619.8 l 1
 703.6 721.2 l 2
 703.6 846.4 659 906.5 522.8 911.9 c 1
 406.7 911.9 257.8 862.1 190.7 834.4 c 1
 121.9 998.8 l 1
 216.9 1053.1 392.5 1098.4 552.2 1098.4 c 0
 704.9 1098.4 811.7 1043 852.3 930.8 c 1
 917.9 1026.6 1053.2 1098.3 1199.4 1098.3 c 0
 1489.5 1098.3 1581.1 921.7 1581.1 762.2 c 0
 1581.1 608.2 1458 453.8 941.7 453.8 c 1
 951.7 251.1 1034.6 167.7 1203.3 165.9 c 1
 1319.9 165.9 1412.1 206.3 1476.7 248.4 c 1
 1547.9 86.6 l 1
 1461.3 18 1355.7 -19 1186.4 -19 c 0
 1017.3 -19 917.9 35.8 841.7 130.3 c 1
 754.7 49.3 584.8 -19.4 409.3 -19.4 c 0
EndSplineSet
EndChar

StartChar: ampersand
Encoding: 38 38 151
Width: 1362
VWidth: 0
Flags: HW
HStem: -19 96 1372 96
VStem: 135 121 312 105 917 110
LayerCount: 2
UndoRedoHistory
Layer: 1
Undoes
EndUndoes
Redoes
EndRedoes
EndUndoRedoHistory
Fore
SplineSet
587 885.9 m 1
 685.2 938.4 782.8 1028.6 782.8 1135.8 c 0
 782.8 1227.9 722.9 1271.2 635.1 1271.2 c 0
 542.7 1271.2 477.2 1226.5 477.2 1130.4 c 0
 477.2 1047 519.4 956 587 885.9 c 1
610.4 175.1 m 0
 705.4 175.1 792.6 203.6 851 251.7 c 1
 499.7 640.3 l 1
 408.6 587.7 348 509.9 348 399.8 c 0
 348 239.9 471.1 175.1 610.4 175.1 c 0
602.9 -17.2 m 0
 338.3 -17.2 107.4 105.3 107.4 390 c 0
 107.4 596.6 221.3 695.5 381.6 784 c 1
 305.5 871.4 245.3 988.2 245.3 1110.9 c 0
 245.3 1328.1 434.3 1441 628.8 1441 c 0
 808.5 1441 1009 1357.3 1009 1143.2 c 0
 1009 966.6 854.5 834.2 702.8 749.4 c 1
 1014.6 405.2 l 1
 1062.7 461.3 1117.5 547.9 1153.4 616.9 c 1
 1321.4 508.4 l 1
 1280.1 425.1 1217 328.1 1154.2 259 c 1
 1340.8 69.2 l 1
 1119.2 -14.6 l 1
 985.4 107.7 l 1
 863.7 18 763 -17.2 602.9 -17.2 c 0
EndSplineSet
EndChar

StartChar: approxequal
Encoding: 8776 8776 153
Width: 1163
VWidth: 0
Flags: HW
LayerCount: 2
UndoRedoHistory
Layer: 1
Undoes
EndUndoes
Redoes
EndRedoes
EndUndoRedoHistory
Fore
SplineSet
120.2 286.5 m 1
 163.5 408.9 252.4 501.7 402.1 501.7 c 0
 487.2 501.7 573.1 469 651.5 430.8 c 1
 732.2 390.3 792.5 366.4 845 366.4 c 0
 918.4 366.4 974.7 406.6 1045.6 501.7 c 1
 1138.2 395.5 l 1
 1095.7 282.1 982 181.1 832.2 181.1 c 0
 740.8 181.1 670.2 211.6 572.1 261.1 c 1
 510.2 294.7 460.4 317.9 395.8 317.9 c 0
 308.5 317.9 256.3 255.9 222.4 175.2 c 1
 120.2 286.5 l 1
120.6 596.1 m 1
 163.1 718.9 251.3 810.7 401.1 810.7 c 0
 486.1 810.7 573.4 777.8 653.1 738.7 c 1
 733.5 698.1 790.3 675.3 845.4 675.3 c 0
 918.8 675.3 976.1 714.9 1045.2 810.7 c 1
 1138.5 705 l 1
 1096.1 590.8 982 489.7 831.5 489.7 c 0
 740.7 489.7 669 521 572.4 570.3 c 1
 510.5 603.9 460 626.5 395.4 626.5 c 0
 309.1 626.5 255.8 565.1 222.4 484.3 c 1
 120.6 596.1 l 1
EndSplineSet
EndChar

StartChar: asciicircum
Encoding: 94 94 156
Width: 1105
VWidth: 0
Flags: HW
LayerCount: 2
UndoRedoHistory
Layer: 1
Undoes
EndUndoes
Redoes
EndRedoes
EndUndoRedoHistory
Fore
SplineSet
62.7 525 m 1
 500.8 1422.6 l 1
 627 1422.6 l 1
 1091.7 525 l 1
 884.9 525 l 1
 565 1155.9 l 1
 269.2 525 l 1
 62.7 525 l 1
EndSplineSet
EndChar

StartChar: asciitilde
Encoding: 126 126 157
Width: 1145
VWidth: 0
Flags: HW
LayerCount: 2
UndoRedoHistory
Layer: 1
Undoes
EndUndoes
Redoes
EndRedoes
EndUndoRedoHistory
Fore
SplineSet
197.2 460.2 m 1
 115.9 597.9 l 1
 164.3 699.9 247 786.5 389.5 786.5 c 0
 471.1 786.5 551.2 760.2 634 723.9 c 0
 718.7 686.4 783.2 662 836.3 662 c 0
 908 662 974.2 704 1046.5 790.5 c 1
 1123.6 658.2 l 1
 1073.8 560.3 959.9 470.7 823.2 470.7 c 0
 735.4 470.7 666.8 498.6 578.9 538.1 c 1
 505.7 573 448.7 597.6 381.3 597.6 c 0
 298.4 597.6 236.4 532.5 197.2 460.2 c 1
EndSplineSet
EndChar

StartChar: asterisk
Encoding: 42 42 158
Width: 1104
VWidth: 0
Flags: HW
LayerCount: 2
UndoRedoHistory
Layer: 1
Undoes
EndUndoes
Redoes
EndRedoes
EndUndoRedoHistory
Fore
SplineSet
390.1 506.8 m 1
 189.8 617.7 l 1
 415.6 906.4 l 1
 89.5 979 l 1
 153.1 1193.1 l 1
 472.6 1059.6 l 1
 440.1 1426.7 l 1
 662.8 1426.7 l 1
 631 1059.6 l 1
 953.4 1193.1 l 1
 1015.4 979 l 1
 686.7 906.4 l 1
 726.7 855.8 900.3 635.6 914.3 617.7 c 1
 905.7 612.3 726.9 510.5 718.3 505.1 c 1
 549.9 812.5 l 1
 390.1 506.8 l 1
EndSplineSet
EndChar

StartChar: at
Encoding: 64 64 159
Width: 1776
VWidth: 0
Flags: HW
LayerCount: 2
UndoRedoHistory
Layer: 1
Undoes
EndUndoes
Redoes
EndRedoes
EndUndoRedoHistory
Fore
SplineSet
826.3 381.3 m 0
 971.2 381.3 1011.7 521.1 1044.1 707.7 c 0
 1044.73809924 712.095794754 1069.00214909 852.215135567 1083.2836717 935.637903756 c 1
 1043.93246262 944.329326422 996.180966026 951.6 961.1 951.6 c 0
 784 951.6 676 773.2 676 586.8 c 0
 676 469.7 724.2 381.3 826.3 381.3 c 0
871.1 -123.9 m 0
 423.2 -123.9 105.8 166.9 105.8 633.9 c 0
 105.8 1099.9 458.7 1444.2 935 1444.2 c 0
 1347.1 1444.2 1670.7 1177.9 1670.7 759.5 c 0
 1670.7 428.3 1471 262.4 1306.3 262.4 c 0
 1182.1749639 262.400000042 1106.74652857 345.680269763 1077.32838077 460.324888258 c 1
 1033.46516575 365.888029256 946.791825679 261.8 808.7 261.8 c 0
 607.3 261.8 512.2 413.1 512.2 591.1 c 0
 512.2 816.8 665.3 1065.3 939.3 1065.3 c 0
 1030.6 1065.3 1174.2 1038.1 1256.2 992.7 c 1
 1229.8 801.3 1193.5 626.9 1193.5 509.4 c 0
 1193.5 436.8 1242.4 388.3 1306.9 388.3 c 0
 1405 388.3 1519.9 501.1 1519.9 768.3 c 0
 1519.9 1033.1 1353.2 1308.9 926.7 1308.9 c 0
 504.5 1308.9 275.5 971.2 275.5 628.6 c 0
 275.5 304.5 476.4 11.9 872.5 11.9 c 0
 1028.6 11.9 1197 49.7 1323.6 121.7 c 1
 1367.1 -1 l 1
 1244.5 -83.1 1053.4 -123.9 871.1 -123.9 c 0
EndSplineSet
EndChar

StartChar: b
Encoding: 98 98 161
Width: 1241
VWidth: 0
Flags: HW
HStem: -19 92 982 92
VStem: 193 125 193 94 1018 122
LayerCount: 2
UndoRedoHistory
Layer: 1
Undoes
EndUndoes
Redoes
EndRedoes
EndUndoRedoHistory
Fore
SplineSet
643.7 176.5 m 0
 786.3 176.5 885.5 291.2 885.5 540 c 0
 885.5 787.6 792.1 896.5 649.1 896.5 c 0
 504.4 896.5 405.6 794.5 403.9 551.8 c 1
 403.9 285.7 500.5 176.5 643.7 176.5 c 0
702.6 -19 m 0
 576.098848454 -19 460.505014856 45.2476212 391.237039821 127.167482689 c 1
 372.3 0 l 1
 154.1 0 l 1
 154.1 1425.9 l 1
 408.7 1441.3 l 1
 408.7 1125.1 l 1
 404.676284307 951.85668546 l 1
 472.808568435 1027.89298559 576.5739117 1091.1 707.1 1091.1 c 0
 983 1091.1 1139.8 859.6 1139.8 542.5 c 0
 1139.8 210.1 972.7 -19 702.6 -19 c 0
EndSplineSet
EndChar

StartChar: backslash
Encoding: 92 92 162
Width: 854
VWidth: 0
Flags: HW
LayerCount: 2
UndoRedoHistory
Layer: 1
Undoes
EndUndoes
Redoes
EndRedoes
EndUndoRedoHistory
Fore
SplineSet
580.8 -6 m 1
 106.3 1407.6 l 1
 332.4 1407.6 l 1
 802.5 -6 l 1
 580.8 -6 l 1
EndSplineSet
EndChar

StartChar: bar
Encoding: 124 124 163
Width: 566
VWidth: 0
Flags: HW
LayerCount: 2
UndoRedoHistory
Layer: 1
Undoes
EndUndoes
Redoes
EndRedoes
EndUndoRedoHistory
Fore
SplineSet
207.9 -282.9 m 1
 207.9 1532 l 1
 406.4 1532 l 1
 406.4 -282.9 l 1
 207.9 -282.9 l 1
EndSplineSet
EndChar

StartChar: braceleft
Encoding: 123 123 164
Width: 702
VWidth: 0
Flags: HW
LayerCount: 2
UndoRedoHistory
Layer: 1
Undoes
EndUndoes
Redoes
EndRedoes
EndUndoRedoHistory
Fore
SplineSet
658.3 -259.4 m 1
 393.4 -259.4 260.6 -189.4 260.6 36.5 c 2
 260.6 285.1 l 2
 260.6 432.1 225.1 489.5 58.4 489.8 c 1
 58.4 699.8 l 1
 230.8 700.7 260.6 752.4 260.6 900.8 c 2
 260.6 1171.1 l 2
 260.6 1391 399.9 1457.7 658.3 1457.8 c 1
 658.3 1260.4 l 1
 524.9 1258.4 500.4 1222.7 500.4 1096.3 c 2
 500.4 842.7 l 1
 498.6 713.3 446.6 644.4 324.9 593.4 c 1
 438.7 559.8 500.4 484.6 500.4 353.6 c 2
 500.4 98.3 l 2
 500.4 -27.3 523.7 -62.2 658.3 -64.2 c 1
 658.3 -259.4 l 1
EndSplineSet
EndChar

StartChar: braceright
Encoding: 125 125 165
Width: 702
VWidth: 0
Flags: HW
LayerCount: 2
UndoRedoHistory
Layer: 1
Undoes
EndUndoes
Redoes
EndRedoes
EndUndoRedoHistory
Fore
SplineSet
88.1 -259.4 m 1
 88.1 -63.9 l 1
 221.5 -61.9 244.2 -28.9 244.2 98.4 c 2
 244.2 353.8 l 2
 244.2 481 302.3 551.2 421.5 595.1 c 1
 302.3 637.7 246 717.9 244.2 842.9 c 1
 244.2 1096.4 l 2
 244.2 1222.9 222.7 1258.8 88.1 1260.8 c 1
 88.1 1457.8 l 1
 352.1 1457.8 484 1389.5 484 1158.2 c 2
 484 900.6 l 2
 484 753.6 515 701.6 687.1 700.4 c 1
 687.1 490.5 l 1
 521 490.5 484 435.2 484 285.9 c 2
 484 23.6 l 2
 484 -194.5 351.9 -259.3 88.1 -259.4 c 1
EndSplineSet
EndChar

StartChar: bracketleft
Encoding: 91 91 166
Width: 744
VWidth: 0
Flags: HW
LayerCount: 2
UndoRedoHistory
Layer: 1
Undoes
EndUndoes
Redoes
EndRedoes
EndUndoRedoHistory
Fore
SplineSet
205.6 -132.4 m 1
 205.6 1500.3 l 1
 656.9 1500.3 l 1
 656.9 1321.4 l 1
 446.9 1321.4 l 1
 446.9 47.2 l 1
 656.9 47.2 l 1
 656.9 -132.4 l 1
 205.6 -132.4 l 1
EndSplineSet
EndChar

StartChar: bracketright
Encoding: 93 93 167
Width: 744
VWidth: 0
Flags: HW
LayerCount: 2
UndoRedoHistory
Layer: 1
Undoes
EndUndoes
Redoes
EndRedoes
EndUndoRedoHistory
Fore
SplineSet
122.5 -132.4 m 1
 122.5 46.3 l 1
 332.6 46.3 l 1
 332.6 1320.5 l 1
 122.5 1320.5 l 1
 122.5 1500.3 l 1
 573.7 1500.3 l 1
 573.7 -132.4 l 1
 122.5 -132.4 l 1
EndSplineSet
EndChar

StartChar: breve
Encoding: 728 728 168
Width: 639
VWidth: 0
Flags: HW
LayerCount: 2
UndoRedoHistory
Layer: 1
Undoes
EndUndoes
Redoes
EndRedoes
EndUndoRedoHistory
Fore
SplineSet
318.7 1179.7 m 0
 163.8 1179.7 44 1260.4 44 1432.4 c 1
 209.5 1432.4 l 1
 209.5 1363.7 242.1 1336 318.7 1336 c 0
 395.3 1336 428.6 1363.7 428.6 1432.4 c 1
 594.8 1432.4 l 1
 594.8 1259.6 474.6 1179.7 318.7 1179.7 c 0
EndSplineSet
EndChar

StartChar: brokenbar
Encoding: 166 166 169
Width: 663
VWidth: 0
Flags: HW
LayerCount: 2
UndoRedoHistory
Layer: 1
Undoes
EndUndoes
Redoes
EndRedoes
EndUndoRedoHistory
Fore
SplineSet
254.8 742 m 1
 254.8 1439.1 l 1
 453.4 1439.1 l 1
 453.4 742 l 1
 254.8 742 l 1
254.8 -335.1 m 1
 254.8 364.1 l 1
 453.4 364.1 l 1
 453.4 -335.1 l 1
 254.8 -335.1 l 1
EndSplineSet
EndChar

StartChar: bullet
Encoding: 8226 8226 170
Width: 865
VWidth: 0
Flags: HW
LayerCount: 2
UndoRedoHistory
Layer: 1
Undoes
EndUndoes
Redoes
EndRedoes
EndUndoRedoHistory
Fore
SplineSet
458.8 350.4 m 0
 269.1 350.4 124.6 486.8 124.6 676.3 c 0
 124.6 866.1 274.9 1006.5 463.9 1006.5 c 0
 651.9 1006.5 797.5 871.7 797.5 682.1 c 0
 797.5 491.6 648.7 350.4 458.8 350.4 c 0
EndSplineSet
EndChar

StartChar: c
Encoding: 99 99 171
Width: 1013
VWidth: 0
Flags: HW
HStem: -19 92 982 92
VStem: 128 120
LayerCount: 2
UndoRedoHistory
Layer: 1
Undoes
EndUndoes
Redoes
EndRedoes
EndUndoRedoHistory
Fore
SplineSet
618.4 -19 m 0
 309.3 -19 102.1 182.9 102.1 539.5 c 0
 102.1 893 330.5 1091.1 621.1 1091.1 c 0
 754.4 1091.1 855.1 1060.2 932.5 1007.1 c 1
 871.8 830.6 l 1
 843 847.7 767.1 892 651.1 892 c 0
 491.9 892 356.2 773.9 356.2 536.8 c 0
 356.2 304.7 480.5 186.4 644.4 180.1 c 0
 737.7 175.6 817 205.4 889 245.8 c 1
 923.5 65.2 l 1
 888.9 40.3 804.9 -19 618.4 -19 c 0
EndSplineSet
EndChar

StartChar: caron
Encoding: 711 711 173
Width: 691
VWidth: 0
Flags: HW
LayerCount: 2
UndoRedoHistory
Layer: 1
Undoes
EndUndoes
Redoes
EndRedoes
EndUndoRedoHistory
Fore
SplineSet
245.2 1145.3 m 1
 -3.1 1500.6 l 1
 194.5 1500.6 l 1
 332.6 1308.2 l 1
 490.1 1500.6 l 1
 691.4 1500.6 l 1
 442.2 1145.3 l 1
 245.2 1145.3 l 1
EndSplineSet
EndChar

StartChar: cedilla
Encoding: 184 184 178
Width: 522
VWidth: 0
Flags: HW
LayerCount: 2
UndoRedoHistory
Layer: 1
Undoes
EndUndoes
Redoes
EndRedoes
EndUndoRedoHistory
Fore
SplineSet
59 -394.1 m 1
 176.1 0.4 l 1
 320 0.4 l 1
 266.5 -394.1 l 1
 59 -394.1 l 1
EndSplineSet
EndChar

StartChar: cent
Encoding: 162 162 179
Width: 943
VWidth: 0
Flags: HW
LayerCount: 2
UndoRedoHistory
Layer: 1
Undoes
EndUndoes
Redoes
EndRedoes
EndUndoRedoHistory
Fore
SplineSet
577.2 -153.3 m 1
 577.2 1216.3 l 1
 664.3 1216.3 l 1
 664.3 -153.3 l 1
 577.2 -153.3 l 1
EndSplineSet
Refer: 171 99 N 1 0 0 1 0 0 2
EndChar

StartChar: circumflex
Encoding: 710 710 180
Width: 693
VWidth: 0
Flags: HW
LayerCount: 2
UndoRedoHistory
Layer: 1
Undoes
EndUndoes
Redoes
EndRedoes
EndUndoRedoHistory
Fore
SplineSet
6.8 1115.6 m 1
 243.4 1500.6 l 1
 446.7 1500.6 l 1
 683.3 1115.6 l 1
 500.1 1115.6 l 1
 335.9 1329.6 l 1
 185.6 1115.6 l 1
 6.8 1115.6 l 1
EndSplineSet
EndChar

StartChar: colon
Encoding: 58 58 181
Width: 623
VWidth: 0
Flags: HW
LayerCount: 2
UndoRedoHistory
Layer: 1
Undoes
EndUndoes
Redoes
EndRedoes
EndUndoRedoHistory
Fore
SplineSet
197.7 806.9 m 1
 197.7 1065.8 l 1
 453.3 1065.8 l 1
 453.3 806.9 l 1
 197.7 806.9 l 1
197.7 0 m 1
 197.7 268.3 l 1
 453.3 268.3 l 1
 453.3 0 l 1
 197.7 0 l 1
EndSplineSet
EndChar

StartChar: comma
Encoding: 44 44 182
Width: 521
VWidth: 0
Flags: HW
LayerCount: 2
UndoRedoHistory
Layer: 1
Undoes
EndUndoes
Redoes
EndRedoes
EndUndoRedoHistory
Fore
SplineSet
115.6 -249 m 1
 115.6 -249 201.1 241.4 201.1 251.8 c 1
 438.2 251.8 l 1
 432.8 197.3 l 2
 432.8 193.2 288.9 -249 288.9 -249 c 1
 115.6 -249 l 1
EndSplineSet
EndChar

StartChar: copyright
Encoding: 169 169 183
Width: 1570
VWidth: 0
Flags: HW
LayerCount: 2
UndoRedoHistory
Layer: 1
Undoes
EndUndoes
Redoes
EndRedoes
EndUndoRedoHistory
Fore
SplineSet
784.2 -4 m 0
 391 -4 44 290.1 44 725.4 c 0
 44 1160.7 389.2 1449.6 782.4 1449.6 c 0
 1178.3 1449.6 1526.6 1159.8 1526.6 725.4 c 0
 1526.6 290.1 1181 -4 784.2 -4 c 0
784.2 105.3 m 0
 1135.8 105.3 1401.6 372.7 1401.6 724.5 c 0
 1401.6 1076.3 1134 1339.3 782.4 1339.3 c 0
 435.3 1339.3 169.9 1076.4 169.9 725.4 c 0
 169.9 372.6 436.2 105.3 784.2 105.3 c 0
775.9 246.1 m 0
 522 246.1 330.6 443.4 330.6 717.2 c 0
 330.6 983.2 514.2 1194.3 773.8 1194.3 c 0
 886.2 1194.3 984.7 1167.8 1064.5 1114.3 c 1
 1010.2 1003.7 l 1
 942.1 1046.1 853.6 1066.8 783.9 1066.8 c 0
 602.9 1066.8 483 927.4 483 718 c 0
 483 508.1 603.8 372.6 788.4 372.6 c 0
 859.1 372.6 947.2 393.3 1016.2 435.2 c 1
 1065.8 325.1 l 1
 988 275 888.1 246.1 775.9 246.1 c 0
EndSplineSet
EndChar

StartChar: currency
Encoding: 164 164 184
Width: 1054
VWidth: 0
Flags: HW
LayerCount: 2
UndoRedoHistory
Layer: 1
Undoes
EndUndoes
Redoes
EndRedoes
EndUndoRedoHistory
Fore
SplineSet
559.5 447.1 m 0
 705.6 447.1 817.5 563.7 817.5 708.7 c 0
 817.5 853.7 704.6 971.3 559.5 971.3 c 0
 416.2 971.3 303.3 852.9 303.3 708.7 c 0
 303.3 563.6 416.2 447.1 559.5 447.1 c 0
970.3 220.7 m 1
 794.4 385.6 l 1
 728.5 336.1 648.2 305.8 559.5 305.8 c 0
 469 305.8 388.6 333.4 321.8 384.8 c 1
 152.2 222.6 l 1
 54.8 316.7 l 1
 229 483.6 l 1
 186.2 548.6 160 625.5 160 708.7 c 0
 160 790.9 184.5 865.5 229 933.9 c 1
 53.8 1101.9 l 1
 152.2 1197.5 l 1
 323.5 1033.6 l 1
 388.6 1082.4 471.8 1112.7 559.5 1112.7 c 0
 649 1112.7 726.8 1083.9 794.4 1031.7 c 1
 970.3 1197.5 l 1
 1063.8 1100.7 l 1
 889.9 933.9 l 1
 932.7 868.5 958.8 791.4 958.8 708.7 c 0
 958.8 625.2 935.3 550.9 890.9 483.6 c 1
 1062.8 318.3 l 1
 970.3 220.7 l 1
EndSplineSet
EndChar

StartChar: d
Encoding: 100 100 185
Width: 1239
VWidth: 0
Flags: HW
LayerCount: 2
UndoRedoHistory
Layer: 1
Undoes
EndUndoes
Redoes
EndRedoes
EndUndoRedoHistory
Fore
SplineSet
598.7 176.5 m 0
 753.8 176.5 841.1 278.7 842.9 521.4 c 1
 842.9 797.9 757.7 894.7 610.3 894.7 c 0
 468 894.7 356.4 792.5 356.4 537.4 c 0
 356.4 288 445.2 176.5 598.7 176.5 c 0
838.686474475 977.298622185 m 1
 831.8 1108.7 l 1
 831.8 1425.9 l 1
 1086.1 1441.3 l 1
 1086.1 0 l 1
 868.4 0 l 1
 846.834383679 120.337442128 l 1
 794.981956733 49.5334397591 708.232530732 -18.1 546.1 -18.1 c 0
 268.8 -18.1 102.1 208.8 102.1 542.1 c 0
 102.1 865.6 269.5 1091.1 545.7 1091.1 c 0
 680.32411689 1091.1 775.080329393 1047.88874287 838.686474475 977.298622185 c 1
EndSplineSet
EndChar

StartChar: dagger
Encoding: 8224 8224 186
Width: 863
VWidth: 0
Flags: HW
LayerCount: 2
UndoRedoHistory
Layer: 1
Undoes
EndUndoes
Redoes
EndRedoes
EndUndoRedoHistory
Fore
SplineSet
358.9 108.6 m 1
 358.9 923.9 l 1
 65 923.9 l 1
 65 1100 l 1
 358.9 1100 l 1
 358.9 1430.1 l 1
 545.6 1430.1 l 1
 545.6 1100 l 1
 854 1100 l 1
 854 923.9 l 1
 539 923.9 l 1
 539 108.6 l 1
 358.9 108.6 l 1
EndSplineSet
EndChar

StartChar: daggerdbl
Encoding: 8225 8225 187
Width: 885
VWidth: 0
Flags: HW
LayerCount: 2
UndoRedoHistory
Layer: 1
Undoes
EndUndoes
Redoes
EndRedoes
EndUndoRedoHistory
Fore
SplineSet
818.9 365 m 1
 563.3 365 l 1
 563.3 -9.3 l 1
 375.1 -9.3 l 1
 375.1 365 l 1
 114.5 365 l 1
 114.5 524.8 l 1
 375.1 524.8 l 1
 375.1 914.9 l 1
 116.3 914.9 l 1
 116.3 1085.6 l 1
 375.1 1085.6 l 1
 375.1 1424.7 l 1
 561.8 1424.7 l 1
 561.8 1085.6 l 1
 821.6 1085.6 l 1
 821.6 914.9 l 1
 562.4 914.9 l 1
 563.3 524.8 l 1
 818.9 524.8 l 1
 818.9 365 l 1
EndSplineSet
EndChar

StartChar: dcroat
Encoding: 273 273 189
Width: 1276
VWidth: 0
Flags: HW
LayerCount: 2
UndoRedoHistory
Layer: 1
Undoes
EndUndoes
Redoes
EndRedoes
EndUndoRedoHistory
Fore
SplineSet
137 1196 m 1
 137 1305 l 1
 632 1305 l 1
 632 1196 l 1
 137 1196 l 1
EndSplineSet
Refer: 185 100 N 1 0 0 1 0 0 2
EndChar

StartChar: degree
Encoding: 176 176 190
Width: 757
VWidth: 0
Flags: HW
LayerCount: 2
UndoRedoHistory
Layer: 1
Undoes
EndUndoes
Redoes
EndRedoes
EndUndoRedoHistory
Fore
SplineSet
379.1 866.5 m 0
 188.7 866.5 75 1005 75 1158.8 c 0
 75 1314.9 191.2 1443 379.1 1443 c 0
 564.8 1443 682.7 1314.9 682.7 1158.8 c 0
 682.7 1006.8 569.6 866.5 379.1 866.5 c 0
379.2 1000.9 m 0
 457.9 1000.9 528.4 1059.4 528.4 1157.9 c 0
 528.4 1253.9 457 1310.4 380.1 1310.4 c 0
 300.8 1310.4 228.4 1253.9 228.4 1157.9 c 0
 228.4 1059.2 300.6 1000.9 379.2 1000.9 c 0
EndSplineSet
EndChar

StartChar: dieresis
Encoding: 168 168 191
Width: 687
VWidth: 0
Flags: HW
LayerCount: 2
UndoRedoHistory
Layer: 1
Undoes
EndUndoes
Redoes
EndRedoes
EndUndoRedoHistory
Fore
SplineSet
466.2 1172.5 m 1
 466.2 1418.6 l 1
 659.8 1418.6 l 1
 659.8 1172.5 l 1
 466.2 1172.5 l 1
74.4 1172.5 m 1
 74.4 1418.6 l 1
 268.8 1418.6 l 1
 268.8 1172.5 l 1
 74.4 1172.5 l 1
EndSplineSet
EndChar

StartChar: divide
Encoding: 247 247 192
Width: 1261
VWidth: 0
Flags: HW
LayerCount: 2
UndoRedoHistory
Layer: 1
Undoes
EndUndoes
Redoes
EndRedoes
EndUndoRedoHistory
Fore
SplineSet
499.9 841.9 m 1
 499.9 1094.6 l 1
 768.3 1094.6 l 1
 768.3 841.9 l 1
 499.9 841.9 l 1
117.2 470.1 m 1
 117.2 657.5 l 1
 1141.8 657.5 l 1
 1141.8 470.1 l 1
 117.2 470.1 l 1
499.9 20.8 m 1
 499.9 284.4 l 1
 761.1 284.4 l 1
 761.1 20.8 l 1
 499.9 20.8 l 1
EndSplineSet
EndChar

StartChar: dotaccent
Encoding: 729 729 193
Width: 458
VWidth: 0
Flags: HW
LayerCount: 2
UndoRedoHistory
Layer: 1
Undoes
EndUndoes
Redoes
EndRedoes
EndUndoRedoHistory
Fore
SplineSet
129.7 1207.3 m 1
 129.7 1422.9 l 1
 329.6 1422.9 l 1
 329.6 1207.3 l 1
 129.7 1207.3 l 1
EndSplineSet
EndChar

StartChar: dotlessi
Encoding: 305 305 194
Width: 507
VWidth: 0
Flags: HW
LayerCount: 2
UndoRedoHistory
Layer: 1
Undoes
EndUndoes
Redoes
EndRedoes
EndUndoRedoHistory
Fore
SplineSet
145.2 0 m 1
 145.2 1065.8 l 1
 396.3 1065.8 l 1
 396.3 0 l 1
 145.2 0 l 1
EndSplineSet
EndChar

StartChar: e
Encoding: 101 101 195
Width: 1191
VWidth: 0
Flags: HW
HStem: -19 94 982 92
LayerCount: 2
UndoRedoHistory
Layer: 1
Undoes
EndUndoes
Redoes
EndRedoes
EndUndoRedoHistory
Fore
SplineSet
660.9 -19.9 m 0
 334.2 -19.9 102.1 191.1 102.1 535.2 c 0
 102.1 870.8 325.6 1089.3 624.3 1090.2 c 0
 913.7 1090.2 1085.8 881.3 1085.8 585.3 c 0
 1085.8 567.8 1078 473.8 1078 473.8 c 1
 360.108443474 473.8 l 1
 376.237902247 264.75003099 511.561788583 171.3 685 171.3 c 0
 849.3 171.3 968.4 226.1 1020.4 250.2 c 1
 1057.3 73.1 l 1
 956.3 9.9 823.9 -19.9 660.9 -19.9 c 0
846.828468513 638.4 m 1
 832.790427831 817.689499904 748.98659329 904.6 626.7 904.6 c 0
 516.201463758 904.6 386.024244889 819.955884772 366.651575657 638.4 c 1
 846.828468513 638.4 l 1
EndSplineSet
EndChar

StartChar: eight
Encoding: 56 56 203
Width: 1207
VWidth: 0
Flags: HW
LayerCount: 2
UndoRedoHistory
Layer: 1
Undoes
EndUndoes
Redoes
EndRedoes
EndUndoRedoHistory
Fore
SplineSet
606.2 824.1 m 1
 752 858.2 832.8 944 832.8 1078.5 c 0
 832.8 1190.5 740.9 1263.1 606.2 1263.1 c 0
 471.7 1263.1 376.6 1190.5 376.6 1078.5 c 0
 376.6 944 459.8 858.2 606.2 824.1 c 1
606.2 171.5 m 0
 765.2 171.5 848.1 255.2 848.1 393.8 c 0
 848.1 536.1 747.8 631.2 606.2 668.5 c 1
 463.9 631.2 361.2 537.9 361.2 392.9 c 0
 361.2 256.2 448.9 171.5 606.2 171.5 c 0
606.2 -19 m 0
 345.9 -19 105.9 115.4 105.9 372.7 c 0
 105.9 549.6 214.8 687 357.9 753.9 c 1
 235.5 814.3 133.4 916.4 133.4 1078.8 c 0
 133.4 1320.4 354.5 1441 605.4 1441 c 0
 857.9 1441 1075.2 1320.4 1075.2 1078.8 c 0
 1075.2 919.8 980.5 817.3 862.5 754.2 c 1
 997.5 687.5 1101.1 545.8 1101.1 371.8 c 0
 1101.1 113.7 865 -19 606.2 -19 c 0
EndSplineSet
EndChar

StartChar: ellipsis
Encoding: 8230 8230 204
Width: 1448
VWidth: 0
Flags: HW
LayerCount: 2
UndoRedoHistory
Layer: 1
Undoes
EndUndoes
Redoes
EndRedoes
EndUndoRedoHistory
Fore
SplineSet
1206 -12 m 0
 1120 -12 1076 53 1076 117 c 0
 1076 181 1119 245 1206 245 c 0
 1293 245 1336 181 1336 117 c 0
 1336 53 1293 -12 1206 -12 c 0
725 -12 m 0
 639 -12 596 53 596 117 c 0
 596 181 638 245 725 245 c 0
 812 245 855 181 855 117 c 0
 855 53 812 -12 725 -12 c 0
244 -12 m 0
 158 -12 114 53 114 117 c 0
 114 181 157 245 244 245 c 0
 331 245 373 181 373 117 c 0
 373 53 331 -12 244 -12 c 0
EndSplineSet
EndChar

StartChar: emdash
Encoding: 8212 8212 206
Width: 1960
VWidth: 0
Flags: HW
LayerCount: 2
UndoRedoHistory
Layer: 1
Undoes
EndUndoes
Redoes
EndRedoes
EndUndoRedoHistory
Fore
SplineSet
36 451.6 m 1
 36 636.1 l 1
 2017.7 636.1 l 1
 2017.7 451.6 l 1
 36 451.6 l 1
EndSplineSet
EndChar

StartChar: endash
Encoding: 8211 8211 207
Width: 1130
VWidth: 0
Flags: HW
LayerCount: 2
UndoRedoHistory
Layer: 1
Undoes
EndUndoes
Redoes
EndRedoes
EndUndoRedoHistory
Fore
SplineSet
82.1 451.6 m 1
 82.1 636.1 l 1
 1117 636.1 l 1
 1117 451.6 l 1
 82.1 451.6 l 1
EndSplineSet
EndChar

StartChar: eng
Encoding: 331 331 208
Width: 1058
VWidth: 0
Flags: HW
LayerCount: 2
UndoRedoHistory
Layer: 1
Undoes
EndUndoes
Redoes
EndRedoes
EndUndoRedoHistory
Fore
SplineSet
614.4 -339.5 m 1
 590.1 -145.9 l 1
 649.2 -145.9 l 2
 796.4 -145.9 811.7 -112.6 811.7 64.4 c 2
 811.7 646.1 l 2
 810.8 805.3 778.7 895.7 641.3 895.7 c 0
 526.1 895.7 441.1 832.7 404.1 745.6 c 1
 391.5 688 388.5 614.9 388.5 530.9 c 2
 388.5 0 l 1
 134.2 0 l 1
 134.2 1065.8 l 1
 342.4 1065.8 l 1
 366.5 940.5 l 1
 449.2 1027.1 555 1091.2 703.6 1091.2 c 0
 950.1 1091.2 1066 935.9 1066 668.4 c 2
 1066 113.8 l 2
 1065.1 -185.3 1005.4 -339.5 680.6 -339.5 c 2
 614.4 -339.5 l 1
EndSplineSet
EndChar

StartChar: eth
Encoding: 240 240 210
Width: 1099
VWidth: 0
Flags: HW
LayerCount: 2
UndoRedoHistory
Layer: 1
Undoes
EndUndoes
Redoes
EndRedoes
EndUndoRedoHistory
Fore
SplineSet
577.2 175.1 m 0
 755.1 175.1 854.7 286 854.7 456 c 0
 854.7 618.6 751.4 736.9 571.1 736.9 c 0
 392.5 736.9 292.6 626.8 292.6 458.1 c 0
 292.6 297.3 395.9 175.1 577.2 175.1 c 0
570.3 -19.1 m 0
 263.4 -19.1 59.9 180.8 59.9 457.4 c 0
 59.9 730.2 249.6 910.8 530.4 910.8 c 0
 584.9 910.8 644.9 892.8 684.4 877.8 c 1
 642.5 934.7 541.7 1043.6 486.5 1100.4 c 1
 249.5 1006.7 l 1
 187.9 1173.7 l 1
 362.1 1243.4 l 1
 164.1 1437.4 l 1
 451.2 1437.4 l 1
 562.4 1327.6 l 1
 823.8 1432.6 l 1
 887.4 1263.9 l 1
 684.1 1183.6 l 1
 801.5 1051.8 904.9 938.4 979.5 813.2 c 1
 1037.3 713.5 1075.5 588.4 1076.4 449.2 c 0
 1076.4 158.6 882.6 -19.1 570.3 -19.1 c 0
EndSplineSet
EndChar

StartChar: exclam
Encoding: 33 33 211
Width: 619
VWidth: 0
Flags: HW
LayerCount: 2
UndoRedoHistory
Layer: 1
Undoes
EndUndoes
Redoes
EndRedoes
EndUndoRedoHistory
Fore
SplineSet
262 436 m 1
 195.4 1239 l 1
 195.4 1444.3 l 1
 431.5 1444.3 l 1
 431.5 1239 l 1
 372.6 436 l 1
 262 436 l 1
310.5 -7.8 m 0
 223.7 -7.8 162.1 61.4 162.1 139.7 c 0
 162.1 218.9 223.7 288 310.5 288 c 0
 396.5 288 458.2 218.9 458.2 139.7 c 0
 458.2 61.2 396.5 -7.8 310.5 -7.8 c 0
EndSplineSet
EndChar

StartChar: f
Encoding: 102 102 213
Width: 792
VWidth: 0
Flags: HW
LayerCount: 2
UndoRedoHistory
Layer: 1
Undoes
EndUndoes
Redoes
EndRedoes
EndUndoRedoHistory
Fore
SplineSet
235.6 0 m 1
 235.6 891.2 l 1
 77 891.2 l 1
 82 1047 l 1
 235.6 1064.42488756 l 1
 235.6 1101.7 l 2
 235.6 1399.7 382.9 1475.7 585.1 1475.7 c 0
 648.8 1475.7 713.8 1468.8 776.8 1456.2 c 1
 754.5 1273.4 l 1
 725.7 1277.9 673.1 1285.2 630.6 1285.2 c 0
 542.5 1285.2 489.9 1264.6 489.9 1122 c 2
 489.9 1065.8 l 1
 739.2 1065.8 l 1
 739.2 891.2 l 1
 489.9 891.2 l 1
 489.9 0 l 1
 235.6 0 l 1
EndSplineSet
EndChar

StartChar: five
Encoding: 53 53 214
Width: 1207
VWidth: 0
Flags: HW
LayerCount: 2
UndoRedoHistory
Layer: 1
Undoes
EndUndoes
Redoes
EndRedoes
EndUndoRedoHistory
Fore
SplineSet
585.5 -19.1 m 0
 377 -19.1 184.8 88.1 151.8 113.6 c 1
 239.6 294.3 l 1
 265 276.7 404.9 185.9 559.1 185.9 c 0
 745.6 185.9 837 296.8 837 452.6 c 0
 837 602.1 747.7 698.5 610.5 698.5 c 0
 536.5 698.5 457.9 666.2 395.1 599.3 c 1
 210.5 628.2 l 1
 249.7 1422.9 l 1
 1045.2 1422.9 l 1
 1027.9 1217.2 l 1
 484.2 1217.2 l 1
 457.8 836.3 l 1
 483.8 855.4 559.9 898.1 685.4 898.1 c 0
 928.9 898.1 1098.5 711.3 1098.5 450.4 c 0
 1098.5 169.6 907.9 -19.1 585.5 -19.1 c 0
EndSplineSet
EndChar

StartChar: four
Encoding: 52 52 215
Width: 1207
VWidth: 0
Flags: HW
LayerCount: 2
UndoRedoHistory
Layer: 1
Undoes
EndUndoes
Redoes
EndRedoes
EndUndoRedoHistory
Fore
SplineSet
354.6 515.7 m 1
 718.1 515.7 l 1
 718.1 1140.6 l 1
 354.6 515.7 l 1
718.2 0 m 1
 718.2 319.1 l 1
 97.9 319.1 l 1
 97.9 508.6 l 1
 661.7 1422.9 l 1
 968.7 1422.9 l 1
 968.7 519.1 l 1
 1140 519.1 l 1
 1125.5 319.1 l 1
 968.7 319.1 l 1
 968.7 0 l 1
 718.2 0 l 1
EndSplineSet
EndChar

StartChar: fraction
Encoding: 8260 8260 216
Width: 1048
VWidth: 0
Flags: HW
LayerCount: 2
UndoRedoHistory
Layer: 1
Undoes
EndUndoes
Redoes
EndRedoes
EndUndoRedoHistory
Fore
SplineSet
40.4 0 m 1
 877.7 1427.5 l 1
 1073.5 1427.5 l 1
 240.8 0 l 1
 40.4 0 l 1
EndSplineSet
EndChar

StartChar: g
Encoding: 103 103 217
Width: 1241
VWidth: 0
Flags: HW
HStem: -426 101 0 93 982 92
VStem: 128 122 977 125 977 36
LayerCount: 2
UndoRedoHistory
Layer: 1
Undoes
EndUndoes
Redoes
EndRedoes
EndUndoRedoHistory
Fore
SplineSet
521.7 -482.7 m 0
 504.4 -482.7 454.5 -481.4 242.1 -476.9 c 1
 242.1 -276.7 l 1
 393.3 -281.3 506.1 -282.5 518.6 -282.5 c 0
 751.2 -282.5 849.3 -150.7 849.3 37.4 c 2
 849.3 155.178089614 l 1
 782.376328154 49.5360731038 673.798168116 18.9 555.4 18.9 c 0
 275.1 18.9 89.1 230.8 89.1 542 c 0
 89.1 885.6 305.5 1091.1 565 1091.1 c 0
 689.503756072 1091.1 793.645662466 1051.53983491 858.201421304 947.67597295 c 1
 869.9 1065.8 l 1
 1095.5 1065.8 l 1
 1095.5 134.6 l 2
 1095.5 -250.2 911.6 -482.7 521.7 -482.7 c 0
600.8 212.7 m 0
 787.4 212.7 850.2 333.7 852 526.8 c 1
 852 565.3 l 2
 852 773 784.9 894.7 609.2 894.7 c 0
 425.3 894.7 343.4 749.2 343.4 549.2 c 0
 343.4 349 411.9 212.7 600.8 212.7 c 0
EndSplineSet
EndChar

StartChar: germandbls
Encoding: 223 223 222
Width: 1163
VWidth: 0
Flags: HW
LayerCount: 2
UndoRedoHistory
Layer: 1
Undoes
EndUndoes
Redoes
EndRedoes
EndUndoRedoHistory
Fore
SplineSet
390.6 0 m 1
 143.5 0 l 1
 143.5 991.1 l 2
 143.5 1272.9 298 1442.7 589.9 1442.7 c 0
 815.6 1442.7 1009.2 1341.1 1009.2 1120.9 c 0
 1009.2 883.5 831.9 833.6 831.9 760.6 c 0
 831.9 661.8 1182.4 603.6 1182.4 303.2 c 0
 1182.4 97.4 1043.4 -21.7 827.9 -21.7 c 0
 729.3 -21.7 618 3.3 505.7 48.3 c 1
 564.3 223.5 l 1
 607.4 201.3 696.2 171 778.9 171 c 0
 865.7 171 932.4 209.4 932.4 310.4 c 0
 932.4 492.1 589.9 550.1 589.9 734.5 c 0
 589.9 898.4 783.5 946.2 783.6 1113.8 c 0
 783.7 1200.3 713.1 1256.1 603.4 1256.1 c 0
 441.3 1256.1 390.6 1160.4 390.6 987.5 c 2
 390.6 0 l 1
EndSplineSet
EndChar

StartChar: grave
Encoding: 96 96 223
Width: 476
VWidth: 0
Flags: HW
LayerCount: 2
UndoRedoHistory
Layer: 1
Undoes
EndUndoes
Redoes
EndRedoes
EndUndoRedoHistory
Fore
SplineSet
321.5 1147.3 m 1
 2.6 1525.6 l 1
 298.5 1525.6 l 1
 483.1 1147.3 l 1
 321.5 1147.3 l 1
EndSplineSet
EndChar

StartChar: greater
Encoding: 62 62 224
Width: 1116
VWidth: 0
Flags: HW
LayerCount: 2
UndoRedoHistory
Layer: 1
Undoes
EndUndoes
Redoes
EndRedoes
EndUndoRedoHistory
Fore
SplineSet
143.4 174.4 m 1
 143.4 387.5 l 1
 795 678.5 l 1
 143.7 1002.3 l 1
 143.7 1206.6 l 1
 1061.4 732.8 l 1
 1061.4 611.5 l 1
 143.4 174.4 l 1
EndSplineSet
EndChar

StartChar: greaterequal
Encoding: 8805 8805 225
Width: 1088
VWidth: 0
Flags: HW
LayerCount: 2
UndoRedoHistory
Layer: 1
Undoes
EndUndoes
Redoes
EndRedoes
EndUndoRedoHistory
Fore
SplineSet
128.8 2.9 m 1
 128.8 162.6 l 1
 1032.9 161.9 l 1
 1032.9 2.9 l 1
 128.8 2.9 l 1
138.3 208.6 m 1
 138.3 406.9 l 1
 786.9 717.7 l 1
 139.7 1045 l 1
 139.7 1241.8 l 1
 1026.7 775.6 l 1
 1026.7 661.6 l 1
 138.3 208.6 l 1
EndSplineSet
EndChar

StartChar: guillemotleft
Encoding: 171 171 226
Width: 953
VWidth: 0
Flags: HW
LayerCount: 2
UndoRedoHistory
Layer: 1
Undoes
EndUndoes
Redoes
EndRedoes
EndUndoRedoHistory
Fore
SplineSet
351.6 129.1 m 1
 49.6 541.6 l 1
 354.7 959.6 l 1
 552.8 908.1 l 1
 290.6 544.6 l 1
 547.5 181.5 l 1
 351.6 129.1 l 1
754.3 129.1 m 1
 452.3 541.6 l 1
 756.4 959.6 l 1
 954.5 908.1 l 1
 693.2 544.6 l 1
 950.2 181.5 l 1
 754.3 129.1 l 1
EndSplineSet
EndChar

StartChar: guillemotright
Encoding: 187 187 227
Width: 1019
VWidth: 0
Flags: HW
LayerCount: 2
UndoRedoHistory
Layer: 1
Undoes
EndUndoes
Redoes
EndRedoes
EndUndoRedoHistory
Fore
SplineSet
280.8 959.6 m 1
 583.7 547.1 l 1
 279.6 129.1 l 1
 82.3 181.6 l 1
 343.7 544.1 l 1
 84.9 908.2 l 1
 280.8 959.6 l 1
674.4 959.6 m 1
 977.3 547.1 l 1
 671.4 129.1 l 1
 476 181.6 l 1
 734.6 544.1 l 1
 480.3 908.2 l 1
 674.4 959.6 l 1
EndSplineSet
EndChar

StartChar: guilsinglleft
Encoding: 8249 8249 228
Width: 523
VWidth: 0
Flags: HW
LayerCount: 2
UndoRedoHistory
Layer: 1
Undoes
EndUndoes
Redoes
EndRedoes
EndUndoRedoHistory
Fore
SplineSet
519 948.3 m 1
 262.4 551.3 l 1
 512.2 160.9 l 1
 311.7 160.9 l 1
 50.4 551.4 l 1
 318.4 948.3 l 1
 519 948.3 l 1
EndSplineSet
EndChar

StartChar: guilsinglright
Encoding: 8250 8250 229
Width: 524
VWidth: 0
Flags: HW
LayerCount: 2
UndoRedoHistory
Layer: 1
Undoes
EndUndoes
Redoes
EndRedoes
EndUndoRedoHistory
Fore
SplineSet
50.2 160.9 m 1
 305.8 553.5 l 1
 56.1 948.3 l 1
 256.6 948.3 l 1
 521.5 553.4 l 1
 250.8 160.9 l 1
 50.2 160.9 l 1
EndSplineSet
EndChar

StartChar: h
Encoding: 104 104 230
Width: 1227
VWidth: 0
Flags: HW
HStem: 982 92
VStem: 193 122 910 122
LayerCount: 2
UndoRedoHistory
Layer: 1
Undoes
EndUndoes
Redoes
EndRedoes
EndUndoRedoHistory
Fore
SplineSet
154.1 0 m 1
 154.1 1425 l 1
 408.4 1440.4 l 1
 408.4 1150.5 l 1
 401.81783398 960.567188764 l 1
 478.321466219 1040.32289523 589.694295489 1090.2 712.4 1090.2 c 0
 938.4 1090.2 1084.8 957.7 1084.8 669.5 c 2
 1084.8 0 l 1
 830.6 0 l 1
 830.6 648 l 2
 830.6 818.5 788.9 894.7 662 894.7 c 0
 456 894.7 405.7 737.3 405.7 524.2 c 2
 405.7 0 l 1
 154.1 0 l 1
EndSplineSet
EndChar

StartChar: hbar
Encoding: 295 295 231
Width: 1065
VWidth: 0
Flags: HW
LayerCount: 2
UndoRedoHistory
Layer: 1
Undoes
EndUndoes
Redoes
EndRedoes
EndUndoRedoHistory
Fore
SplineSet
113.1 0 m 1
 113.1 1173.8 l 1
 19.9 1173.8 l 1
 19.9 1315.7 l 1
 113.1 1315.7 l 1
 113.1 1437.4 l 1
 355.1 1456.5 l 1
 355.1 1315.7 l 1
 626.9 1315.7 l 1
 626.9 1173.8 l 1
 355.1 1173.8 l 1
 355.1 956.2 l 1
 438.5 1040.1 550.6 1086.1 686.1 1086.1 c 0
 890.6 1086.1 1036 959.9 1036 645.3 c 2
 1036 0 l 1
 794.9 0 l 1
 794.9 628.4 l 2
 794.9 814.3 765.3 896.3 628.9 896.3 c 0
 501.7 896.3 396 811.4 355.1 720.5 c 1
 355.1 0 l 1
 113.1 0 l 1
EndSplineSet
EndChar

StartChar: hungarumlaut
Encoding: 733 733 233
Width: 849
VWidth: 0
Flags: HW
LayerCount: 2
UndoRedoHistory
Layer: 1
Undoes
EndUndoes
Redoes
EndRedoes
EndUndoRedoHistory
Fore
SplineSet
407.4 1117.9 m 1
 646.7 1469.4 l 1
 876 1469.4 l 1
 546.5 1117.9 l 1
 407.4 1117.9 l 1
126.9 1117.9 m 1
 357.4 1469.4 l 1
 582.9 1469.4 l 1
 267.5 1117.9 l 1
 126.9 1117.9 l 1
EndSplineSet
EndChar

StartChar: hyphen
Encoding: 45 45 234
Width: 612
VWidth: 0
Flags: HW
LayerCount: 2
UndoRedoHistory
Layer: 1
Undoes
EndUndoes
Redoes
EndRedoes
EndUndoRedoHistory
Fore
SplineSet
48.1 435 m 1
 48.1 624.2 l 1
 562.3 624.2 l 1
 562.3 435 l 1
 48.1 435 l 1
EndSplineSet
EndChar

StartChar: i
Encoding: 105 105 235
Width: 566
VWidth: 0
Flags: HW
LayerCount: 2
UndoRedoHistory
Layer: 1
Undoes
EndUndoes
Redoes
EndRedoes
EndUndoRedoHistory
Fore
SplineSet
160.5 1222.9 m 1
 160.5 1422.9 l 1
 414.8 1422.9 l 1
 414.8 1222.9 l 1
 160.5 1222.9 l 1
160.5 0 m 1
 160.5 1065.8 l 1
 414.8 1065.8 l 1
 414.8 0 l 1
 160.5 0 l 1
EndSplineSet
EndChar

StartChar: infinity
Encoding: 8734 8734 243
Width: 1735
VWidth: 0
Flags: HW
LayerCount: 2
UndoRedoHistory
Layer: 1
Undoes
EndUndoes
Redoes
EndRedoes
EndUndoRedoHistory
Fore
SplineSet
1273 371 m 0
 1425 371 1497 493 1497 647 c 0
 1497 768 1402 870 1269 870 c 0
 1134 870 1025 750 938 622 c 1
 1058 458 1149 371 1273 371 c 0
464 371 m 0
 593 371 706 485 798 620 c 1
 707 763 597 870 457 870 c 0
 313 870 224 756 224 622 c 0
 224 496 320 371 464 371 c 0
462 247 m 0
 241 247 113 429 113 642 c 0
 113 836 266 990 458 990 c 0
 625 990 748 884 868 725 c 1
 980 879 1103 990 1273 990 c 0
 1494 990 1617 837 1617 625 c 0
 1617 402 1465 247 1271 247 c 0
 1123 247 1001 334 868 511 c 1
 751 357 625 247 462 247 c 0
EndSplineSet
EndChar

StartChar: integral
Encoding: 8747 8747 244
Width: 719
VWidth: 0
Flags: HW
LayerCount: 2
UndoRedoHistory
Layer: 1
Undoes
EndUndoes
Redoes
EndRedoes
EndUndoRedoHistory
Fore
SplineSet
162 -411 m 0
 129 -411 92 -407 51 -398 c 1
 51 -306 l 1
 87 -315 120 -319 147 -319 c 0
 284 -319 303 -209 303 -49 c 2
 303 1115 l 2
 303 1350 365 1470 536 1470 c 0
 570 1470 609 1465 653 1455 c 1
 653 1363 l 1
 617 1373 587 1378 560 1378 c 0
 443 1378 419 1280 419 1124 c 2
 419 -41 l 2
 419 -281 343 -411 162 -411 c 0
EndSplineSet
EndChar

StartChar: j
Encoding: 106 106 247
Width: 613
VWidth: 0
Flags: HW
LayerCount: 2
UndoRedoHistory
Layer: 1
Undoes
EndUndoes
Redoes
EndRedoes
EndUndoRedoHistory
Fore
SplineSet
213.3 1222.9 m 1
 213.3 1422.9 l 1
 465.1 1422.9 l 1
 465.1 1222.9 l 1
 213.3 1222.9 l 1
17.5 -390.5 m 1
 -10.4 -198.1 l 1
 52.1 -198.1 l 2
 200.6 -198.1 213.3 -148.2 213.3 8.5 c 2
 213.3 1066.7 l 1
 465.1 1066.7 l 1
 465.1 36.8 l 2
 465.1 -251.3 397.6 -390.5 79.8 -390.5 c 2
 17.5 -390.5 l 1
EndSplineSet
EndChar

StartChar: k
Encoding: 107 107 249
Width: 1166
VWidth: 0
Flags: HW
LayerCount: 2
UndoRedoHistory
Layer: 1
Undoes
EndUndoes
Redoes
EndRedoes
EndUndoRedoHistory
Fore
SplineSet
154.1 0 m 1
 154.1 1425.9 l 1
 408.4 1441.3 l 1
 408.4 811.9 l 1
 402.782882372 598.529774675 l 1
 804.7 1065.8 l 1
 1124 1065.8 l 1
 706.692845545 580.458532953 l 1
 1147.2 0 l 1
 848.4 0 l 1
 502.36666596 458.810493783 l 1
 408.4 370.058930373 l 1
 408.4 0 l 1
 154.1 0 l 1
EndSplineSet
EndChar

StartChar: l
Encoding: 108 108 251
Width: 746
VWidth: 0
Flags: HW
HStem: -11 87
VStem: 193 122
LayerCount: 2
UndoRedoHistory
Layer: 1
Undoes
EndUndoes
Redoes
EndRedoes
EndUndoRedoHistory
Fore
SplineSet
545.5 -13.7 m 0
 270.5 -13.7 155 102.9 155 387.7 c 2
 155 1425.9 l 1
 409.3 1441.3 l 1
 409.3 360.8 l 2
 409.3 193.7 490.3 176.8 590 176.8 c 0
 658.7 176.8 725.4 188.2 726.4 188.3 c 1
 726.4 16.2 l 1
 724.3 15.9 639.6 -13.7 545.5 -13.7 c 0
EndSplineSet
EndChar

StartChar: less
Encoding: 60 60 256
Width: 1115
VWidth: 0
Flags: HW
LayerCount: 2
UndoRedoHistory
Layer: 1
Undoes
EndUndoes
Redoes
EndRedoes
EndUndoRedoHistory
Fore
SplineSet
1019.9 171 m 1
 102.3 611.7 l 1
 102.3 734.7 l 1
 1020.3 1204.9 l 1
 1020.3 1000.5 l 1
 366.7 678.5 l 1
 1018.3 384.8 l 2
 1019.2 383.9 1019.9 171 1019.9 171 c 1
EndSplineSet
EndChar

StartChar: lessequal
Encoding: 8804 8804 257
Width: 1089
VWidth: 0
Flags: HW
LayerCount: 2
UndoRedoHistory
Layer: 1
Undoes
EndUndoes
Redoes
EndRedoes
EndUndoRedoHistory
Fore
SplineSet
123 1.8 m 1
 123 160 l 1
 1029.7 160 l 1
 1029.7 1.8 l 1
 123 1.8 l 1
1020.4 279.4 m 1
 133.2 696.4 l 1
 133.2 811.6 l 1
 1020.4 1240.5 l 1
 1020.4 1046.2 l 1
 379.7 754.6 l 1
 1020.4 478.7 l 1
 1020.4 279.4 l 1
EndSplineSet
EndChar

StartChar: logicalnot
Encoding: 172 172 258
Width: 1136
VWidth: 0
Flags: HW
LayerCount: 2
UndoRedoHistory
Layer: 1
Undoes
EndUndoes
Redoes
EndRedoes
EndUndoRedoHistory
Fore
SplineSet
863.1 241.9 m 1
 863.1 617.2 l 1
 88.2 617.2 l 1
 88.2 807.3 l 1
 1051.9 807.3 l 1
 1051.9 241.9 l 1
 863.1 241.9 l 1
EndSplineSet
EndChar

StartChar: lozenge
Encoding: 9674 9674 259
Width: 1086
VWidth: 0
Flags: HW
LayerCount: 2
UndoRedoHistory
Layer: 1
Undoes
EndUndoes
Redoes
EndRedoes
EndUndoRedoHistory
Fore
SplineSet
570.6 163.6 m 1
 669.9 346.4 772.9 527.1 870.6 706.7 c 1
 776 886 675.2 1067.2 580.9 1248.6 c 1
 483.1 1067.8 380.3 887.3 282.6 707.8 c 1
 377.4 528.2 473.8 344.2 570.6 163.6 c 1
508.9 -43.6 m 1
 88.9 705.8 l 1
 515.8 1460.1 l 1
 643.5 1460.1 l 1
 1065.1 707 l 1
 633.7 -43.6 l 1
 508.9 -43.6 l 1
EndSplineSet
EndChar

StartChar: m
Encoding: 109 109 260
Width: 1809
VWidth: 0
Flags: HW
HStem: 982 92
VStem: 193 122 193 98 845 122 1483 122
LayerCount: 2
UndoRedoHistory
Layer: 1
Undoes
EndUndoes
Redoes
EndRedoes
EndUndoRedoHistory
Fore
SplineSet
154.1 0 m 1
 154.1 1065.8 l 1
 361 1065.8 l 1
 384.948603519 945.992948704 l 1
 452.136626526 1027.98107134 556.061710552 1091.1 706.8 1091.1 c 0
 853.802321995 1091.1 937.563321128 1035.52429203 997.546699301 927.728633054 c 1
 1079.04196432 1037.74857121 1191.00205356 1091.1 1316.3 1091.1 c 0
 1558.6 1091.1 1666.9 941.9 1666.9 678.6 c 2
 1666.9 0 l 1
 1412.6 0 l 1
 1412.6 607.2 l 2
 1412.6 794.2 1389.4 895.6 1258.5 895.6 c 0
 1156.2 895.6 1096.5 842.1 1067 752.6 c 0
 1053.9 715.1 1046 668.9 1040.6 614.2 c 1
 1040.6 0 l 1
 786.3 0 l 1
 786.3 616.3 l 2
 786.3 799.3 763.3 895.6 636.1 895.6 c 0
 446.4 895.6 412.1 741.9 408.4 537 c 1
 408.4 0 l 1
 154.1 0 l 1
EndSplineSet
EndChar

StartChar: macron
Encoding: 175 175 261
Width: 838
VWidth: 0
Flags: HW
LayerCount: 2
UndoRedoHistory
Layer: 1
Undoes
EndUndoes
Redoes
EndRedoes
EndUndoRedoHistory
Fore
SplineSet
83.4 1255.7 m 1
 83.4 1415.9 l 1
 751.6 1415.9 l 1
 751.6 1255.7 l 1
 83.4 1255.7 l 1
EndSplineSet
EndChar

StartChar: middot
Encoding: 65537 -1 262
Width: 398
VWidth: 0
Flags: HW
LayerCount: 2
UndoRedoHistory
Layer: 1
Undoes
EndUndoes
Redoes
EndRedoes
EndUndoRedoHistory
Fore
SplineSet
114 547 m 1
 114 739 l 1
 278 739 l 1
 278 547 l 1
 114 547 l 1
EndSplineSet
EndChar

StartChar: minus
Encoding: 8722 8722 263
Width: 1227
VWidth: 0
Flags: HW
LayerCount: 2
UndoRedoHistory
Layer: 1
Undoes
EndUndoes
Redoes
EndRedoes
EndUndoRedoHistory
Fore
SplineSet
115.3 457.7 m 1
 115.3 642.4 l 1
 1110.1 642.4 l 1
 1110.1 457.7 l 1
 115.3 457.7 l 1
EndSplineSet
EndChar

StartChar: multiply
Encoding: 215 215 264
Width: 1181
VWidth: 0
Flags: HW
LayerCount: 2
UndoRedoHistory
Layer: 1
Undoes
EndUndoes
Redoes
EndRedoes
EndUndoRedoHistory
Fore
SplineSet
866.5 145.5 m 1
 590.7 426.8 l 1
 312.8 145.4 l 1
 181.8 285.1 l 1
 452.8 566.2 l 1
 183.1 850.4 l 1
 314.2 986.2 l 1
 590.7 704.6 l 1
 864.3 985.6 l 1
 999.3 849 l 1
 726.9 566.1 l 1
 788.1 504.9 999.7 286.3 999.7 286.3 c 1
 866.5 145.5 l 1
EndSplineSet
EndChar

StartChar: n
Encoding: 110 110 265
Width: 1258
VWidth: 0
Flags: HW
HStem: 0 22 982 92 1034 21
VStem: 193 122 903 122
LayerCount: 2
UndoRedoHistory
Layer: 1
Undoes
EndUndoes
Redoes
EndRedoes
EndUndoRedoHistory
Fore
SplineSet
154.1 0 m 1
 154.1 1065.8 l 1
 362.4 1065.8 l 1
 388.021119734 933.4478069 l 1
 474.007294819 1030.77820988 591.258310753 1091.1 751.4 1091.1 c 0
 997.9 1091.1 1115.7 935.9 1115.7 668.4 c 2
 1115.7 0 l 1
 861.4 0 l 1
 861.4 646.1 l 2
 860.6 805.3 826.4 895.6 689 895.6 c 0
 476.7 895.6 408.4 750.3 408.4 530.9 c 2
 408.4 0 l 1
 154.1 0 l 1
EndSplineSet
EndChar

StartChar: nine
Encoding: 57 57 270
Width: 1207
VWidth: 0
Flags: HW
LayerCount: 2
UndoRedoHistory
Layer: 1
Undoes
EndUndoes
Redoes
EndRedoes
EndUndoRedoHistory
Fore
SplineSet
622.2 731.3 m 0
 788.2 731.3 872.5 828 872.5 992.3 c 0
 872.5 1142.3 788.6 1241.5 626.7 1241.5 c 0
 460.6 1241.5 366.8 1139.2 366.8 988 c 0
 366.8 830.7 449.3 731.3 622.2 731.3 c 0
238.7 0 m 1
 603.1 471.4 l 2
 608.81114279 479.029389147 638.527566361 517.620458806 670.232850079 558.726700797 c 1
 638.265526458 548.087990471 604.516050248 540.5 573.5 540.5 c 0
 309.8 540.5 107.2 717.4 107.2 982.6 c 0
 107.2 1257.7 323.5 1441 615.7 1441 c 0
 918.6 1441 1129.2 1254.5 1129.2 979.6 c 0
 1129.2 794.2 1041.4 664.3 942.6 527.7 c 0
 922.8 501.6 548.7 0 548.7 0 c 1
 238.7 0 l 1
EndSplineSet
EndChar

StartChar: notequal
Encoding: 8800 8800 271
Width: 1154
VWidth: 0
Flags: HW
LayerCount: 2
UndoRedoHistory
Layer: 1
Undoes
EndUndoes
Redoes
EndRedoes
EndUndoRedoHistory
Fore
SplineSet
429.6 41.1 m 1
 268.7 65.9 l 1
 382 308.3 l 1
 137.5 308.3 l 1
 127.1 476.4 l 1
 463 476.4 l 1
 572.9 697.1 l 1
 137.5 697.1 l 1
 125.3 874.9 l 1
 650.5 874.9 l 1
 778.3 1126 l 1
 941.2 1104.4 l 1
 830.6 874.9 l 1
 1087.9 874.9 l 1
 1101.1 696.3 l 1
 752.2 696.3 l 1
 639.9 475.5 l 1
 1089.2 475.5 l 1
 1101.1 308.3 l 1
 560.6 308.3 l 1
 429.6 41.1 l 1
EndSplineSet
EndChar

StartChar: numbersign
Encoding: 35 35 273
Width: 1209
VWidth: 0
Flags: HW
LayerCount: 2
UndoRedoHistory
Layer: 1
Undoes
EndUndoes
Redoes
EndRedoes
EndUndoRedoHistory
Fore
SplineSet
607.3 -2.8 m 1
 690.6 440.4 l 1
 460.4 440.4 l 1
 376.1 -2.8 l 1
 227.7 -2.8 l 1
 311.1 440.4 l 1
 117.7 440.4 l 1
 134.9 560.3 l 1
 334.2 560.3 l 1
 406.1 941 l 1
 203 941 l 1
 220.2 1060.9 l 1
 428.3 1060.9 l 1
 496 1419.9 l 1
 647.1 1419.9 l 1
 578.6 1060.9 l 1
 808.8 1060.9 l 1
 876.5 1419.9 l 1
 1026.7 1419.9 l 1
 958.2 1060.9 l 1
 1143.9 1060.9 l 1
 1126.4 941 l 1
 936 941 l 1
 864 560.3 l 1
 1058.6 560.3 l 1
 1041.1 440.4 l 1
 840 440.4 l 1
 755.7 -2.8 l 1
 607.3 -2.8 l 1
713.7 560.3 m 1
 785.7 941 l 1
 556.4 941 l 1
 483.5 560.3 l 1
 713.7 560.3 l 1
EndSplineSet
EndChar

StartChar: o
Encoding: 111 111 274
Width: 1246
VWidth: 0
Flags: HW
HStem: -19 92 982 92
VStem: 128 120 982 120
LayerCount: 2
UndoRedoHistory
Layer: 1
Undoes
EndUndoes
Redoes
EndRedoes
EndUndoRedoHistory
Fore
SplineSet
623.3 -19 m 0
 313.8 -19 102.1 201.4 102.1 536.6 c 0
 102.1 881.4 302.1 1091.1 623.3 1091.1 c 0
 935.5 1091.1 1144.5 873.8 1144.5 536.6 c 0
 1144.5 197.2 942.7 -19 623.3 -19 c 0
623.3 175.6 m 0
 791.2 175.6 890.4 301.3 890.4 536.3 c 0
 890.4 767.9 791.8 895.6 623.3 895.6 c 0
 458.2 895.6 356.2 768 356.2 536.4 c 0
 356.2 303.1 455.5 175.6 623.3 175.6 c 0
EndSplineSet
EndChar

StartChar: ogonek
Encoding: 731 731 279
Width: 513
VWidth: 0
Flags: HW
LayerCount: 2
UndoRedoHistory
Layer: 1
Undoes
EndUndoes
Redoes
EndRedoes
EndUndoRedoHistory
Fore
SplineSet
482.3 -389.3 m 1
 428 -410.3 364.2 -425.2 304 -425.2 c 0
 192.7 -425.2 102.2 -368.9 102.2 -253.5 c 0
 102.2 -127 208.5 -42.7 287.6 0 c 1
 395.9 0 l 1
 320.6 -57.5 279.9 -145.3 279.9 -205.8 c 0
 279.9 -244.6 308.5 -278.8 349.2 -278.8 c 0
 402.4 -278.8 461.2 -253.5 475.1 -248 c 0
 475.9 -248 482.3 -389.3 482.3 -389.3 c 1
EndSplineSet
EndChar

StartChar: one
Encoding: 49 49 285
Width: 1207
VWidth: 0
Flags: HW
LayerCount: 2
UndoRedoHistory
Layer: 1
Undoes
EndUndoes
Redoes
EndRedoes
EndUndoRedoHistory
Fore
SplineSet
235.3 0 m 1
 235.3 198.4 l 1
 553.9 198.4 l 1
 553.9 1184.66926301 l 1
 479.597489967 1140.22016904 360.764248315 1100.12413921 249.2 1082.8 c 1
 249.2 1282.6 l 1
 366.5 1314.2 506.3 1364.7 587.4 1422.9 c 1
 808.2 1422.9 l 1
 808.2 198.4 l 1
 1093 198.4 l 1
 1093 0 l 1
 235.3 0 l 1
EndSplineSet
EndChar

StartChar: onehalf
Encoding: 189 189 286
Width: 1600
VWidth: 0
Flags: HW
LayerCount: 2
UndoRedoHistory
Layer: 1
Undoes
EndUndoes
Redoes
EndRedoes
EndUndoRedoHistory
Fore
SplineSet
261.8 18 m 1
 1216.2 1423.3 l 1
 1415.1 1423.3 l 1
 462.6 18 l 1
 261.8 18 l 1
1030.7 -24.4 m 1
 1031.6 116 l 1
 1055.6 140.1 1410.5 415.3 1410.5 542.7 c 0
 1410.5 618.1 1348.7 659.7 1287.9 659.7 c 0
 1220.2 659.7 1142.1 630.8 1097 569.1 c 1
 1020.7 684.8 l 1
 1078.9 771.8 1184.5 815.3 1304.7 815.3 c 0
 1447.9 815.3 1583.7 718 1583.7 548.1 c 0
 1583.7 365.4 1452.3 264.7 1279 117.5 c 1
 1582.5 117.5 l 1
 1566.3 -24.4 l 1
 1030.7 -24.4 l 1
96.1 586.2 m 1
 96.1 726.1 l 1
 227.3 726.1 l 1
 227.3 1257.7 l 1
 192.1 1237.2 82.9 1176.1 78.6 1173.9 c 1
 78.6 1328.7 l 1
 84.6 1331.7 248.6 1430.2 252.5 1434.1 c 1
 416.7 1433.2 l 1
 416.7 726.1 l 1
 545.8 726.1 l 1
 545.8 586.2 l 1
 96.1 586.2 l 1
EndSplineSet
EndChar

StartChar: onequarter
Encoding: 188 188 287
Width: 1533
VWidth: 0
Flags: HW
LayerCount: 2
UndoRedoHistory
Layer: 1
Undoes
EndUndoes
Redoes
EndRedoes
EndUndoRedoHistory
Fore
SplineSet
1093.3 312.5 m 1
 1267.3 312.5 l 1
 1267.3 597.3 l 1
 1093.3 312.5 l 1
259.8 0 m 1
 1214.2 1423.3 l 1
 1408.5 1423.3 l 1
 459.6 0 l 1
 259.8 0 l 1
1269.1 8.2 m 1
 1269.1 171.7 l 1
 893.7 171.7 l 1
 893.7 314.2 l 1
 1259.1 838 l 1
 1431.9 838 l 1
 1431.9 312.5 l 1
 1538.9 312.5 l 1
 1542.6 171.7 l 1
 1430.8 171.7 l 1
 1429.9 8.2 l 1
 1269.1 8.2 l 1
70.5 577.2 m 1
 70.5 729.9 l 1
 207.5 729.9 l 1
 207.5 1245.2 l 1
 171.4 1227.4 59.5 1174.9 54.6 1173.2 c 1
 54.6 1327.8 l 1
 59.7 1329.6 249.5 1430.2 253.4 1434.1 c 1
 396 1433.2 l 1
 396 729.9 l 1
 528.1 729.9 l 1
 528.1 577.2 l 1
 70.5 577.2 l 1
EndSplineSet
EndChar

StartChar: ordmasculine
Encoding: 186 186 288
Width: 844
VWidth: 0
Flags: HW
LayerCount: 2
UndoRedoHistory
Layer: 1
Undoes
EndUndoes
Redoes
EndRedoes
EndUndoRedoHistory
Fore
SplineSet
754 1174 m 0
 754 965 618 804 422 804 c 0
 214 804 90 962 90 1174 c 0
 90 1390 214 1549 422 1549 c 0
 636 1549 754 1393 754 1174 c 0
189 1175 m 0
 189 1015 267 874 422 874 c 0
 585 874 663 1013 663 1172 c 0
 663 1336 581 1478 422 1478 c 0
 268 1478 189 1338 189 1175 c 0
EndSplineSet
EndChar

StartChar: oslash
Encoding: 248 248 289
Width: 1158
VWidth: 0
Flags: HW
LayerCount: 2
UndoRedoHistory
Layer: 1
Undoes
EndUndoes
Redoes
EndRedoes
EndUndoRedoHistory
Fore
SplineSet
290.4 -148.3 m 1
 218.6 -102.7 l 1
 929 1210.8 l 1
 1006.8 1165.3 l 1
 290.4 -148.3 l 1
EndSplineSet
Refer: 274 111 N 1 0 0 1 0 0 2
EndChar

StartChar: p
Encoding: 112 112 292
Width: 1241
VWidth: 0
Flags: HW
HStem: -19 92 982 92
VStem: 193 122 193 97 1009 122
LayerCount: 2
UndoRedoHistory
Layer: 1
Undoes
EndUndoes
Redoes
EndRedoes
EndUndoRedoHistory
Fore
SplineSet
652.4 176.5 m 0
 795.6 176.5 885.5 301.1 885.5 539.1 c 0
 885.5 783.1 794.5 895.6 650 895.6 c 0
 495 895.6 408.9 791.5 407.1 554.4 c 1
 407.1 286.9 494.2 176.5 652.4 176.5 c 0
155.9 -433.2 m 1
 155.9 1065.8 l 1
 374.4 1065.8 l 1
 396.006558628 944.207665671 l 1
 482.437882936 1044.82284945 602.282910007 1091.1 718.7 1091.1 c 0
 983.4 1091.1 1139.8 847.9 1139.8 537.1 c 0
 1139.8 216.3 974.2 -19 699.8 -19 c 0
 564.186506994 -19 465.34710934 45.4579648885 405.434692873 109.935794567 c 1
 409.3 -23.1 l 1
 409.3 -420.7 l 1
 155.9 -433.2 l 1
EndSplineSet
EndChar

StartChar: paragraph
Encoding: 182 182 293
Width: 1059
VWidth: 0
Flags: HW
LayerCount: 2
UndoRedoHistory
Layer: 1
Undoes
EndUndoes
Redoes
EndRedoes
EndUndoRedoHistory
Fore
SplineSet
408.7 -16.2 m 1
 408.7 811.6 l 1
 204 811.6 72.2 930.5 72.2 1112.7 c 0
 72.2 1350.9 264.5 1434.3 546.8 1434.3 c 2
 968.4 1434.3 l 1
 968.4 1263.3 l 1
 891.9 1263.3 l 1
 891.9 -16.2 l 1
 724.7 -16.2 l 1
 724.7 1263.3 l 1
 575.9 1263.3 l 1
 575.9 -16.2 l 1
 408.7 -16.2 l 1
EndSplineSet
EndChar

StartChar: parenleft
Encoding: 40 40 294
Width: 718
VWidth: 0
Flags: HW
LayerCount: 2
UndoRedoHistory
Layer: 1
Undoes
EndUndoes
Redoes
EndRedoes
EndUndoRedoHistory
Fore
SplineSet
448 -158.7 m 1
 286.6 68.5 179.4 335 179.4 669.9 c 0
 179.4 1003 296.6 1301 446.9 1504.8 c 1
 680.2 1504.8 l 1
 561.4 1329.5 419.4 999.9 419.4 672.2 c 0
 419.4 360.3 528.6 93.4 679.1 -158.7 c 1
 448 -158.7 l 1
EndSplineSet
EndChar

StartChar: parenright
Encoding: 41 41 295
Width: 728
VWidth: 0
Flags: HW
LayerCount: 2
UndoRedoHistory
Layer: 1
Undoes
EndUndoes
Redoes
EndRedoes
EndUndoRedoHistory
Fore
SplineSet
95.1 -158.7 m 1
 213.2 15.1 355.7 353.1 355.7 683.9 c 0
 355.7 992.7 247.1 1251.2 95.9 1504.8 c 1
 327.4 1504.8 l 1
 489.4 1274.9 595.7 1016.5 595.7 686.1 c 0
 595.7 348.5 477.8 42.4 328.1 -158.7 c 1
 95.1 -158.7 l 1
EndSplineSet
EndChar

StartChar: partialdiff
Encoding: 8706 8706 296
Width: 1182
VWidth: 0
Flags: HW
LayerCount: 2
UndoRedoHistory
Layer: 1
Undoes
EndUndoes
Redoes
EndRedoes
EndUndoRedoHistory
Fore
SplineSet
510 116 m 0
 721 116 861 373 892 687 c 1
 858 805 767 911 627 911 c 0
 425 911 266 694 266 439 c 0
 266 244 361 116 510 116 c 0
509 -27 m 0
 240 -27 123 177 123 440 c 0
 123 785 321 1049 602 1049 c 0
 736 1049 839 987 905 877 c 1
 905 895 906 927 906 954 c 0
 906 1271 793 1467 582 1467 c 0
 482 1467 384 1424 306 1369 c 1
 293 1512 l 1
 374 1568 486 1608 606 1608 c 0
 896 1608 1054 1383 1054 892 c 0
 1054 440 893 -27 509 -27 c 0
EndSplineSet
EndChar

StartChar: percent
Encoding: 37 37 297
Width: 1745
VWidth: 0
Flags: HW
LayerCount: 2
UndoRedoHistory
Layer: 1
Undoes
EndUndoes
Redoes
EndRedoes
EndUndoRedoHistory
Fore
SplineSet
406.9 0 m 1
 1232.5 1422.9 l 1
 1399.2 1422.9 l 1
 581.7 0 l 1
 406.9 0 l 1
408 699.1 m 0
 179.4 699.1 59.6 860.4 59.6 1067.8 c 0
 59.6 1276.2 182.5 1435.5 408 1435.5 c 0
 637.6 1435.5 758.3 1279.2 758.3 1067.8 c 0
 758.3 860.4 634.6 699.1 408 699.1 c 0
408.2 826.5 m 0
 543.6 826.5 602 934.1 602 1069.7 c 0
 602 1209.5 542.6 1309.9 408.2 1309.9 c 0
 272.7 1309.9 212.4 1204.4 212.4 1069.7 c 0
 212.4 930.9 272.8 826.5 408.2 826.5 c 0
1413.9 113.5 m 0
 1549.3 113.5 1607.7 221.1 1607.7 356.7 c 0
 1607.7 496.5 1548.3 596.9 1413.9 596.9 c 0
 1278.4 596.9 1218.1 491.4 1218.1 356.7 c 0
 1218.1 217.9 1278.5 113.5 1413.9 113.5 c 0
1413.7 -13.9 m 0
 1185.1 -13.9 1065.3 147.4 1065.3 354.8 c 0
 1065.3 563.2 1188.2 722.5 1413.7 722.5 c 0
 1643.3 722.5 1764 566.2 1764 354.8 c 0
 1764 147.4 1640.3 -13.9 1413.7 -13.9 c 0
EndSplineSet
EndChar

StartChar: period
Encoding: 46 46 298
Width: 540
VWidth: 0
Flags: HW
LayerCount: 2
UndoRedoHistory
Layer: 1
Undoes
EndUndoes
Redoes
EndRedoes
EndUndoRedoHistory
Fore
SplineSet
289.4 1 m 0
 204.3 1 141 68 141 146.8 c 0
 141 225.7 203.2 295.3 289.4 295.3 c 0
 374.5 295.3 435.9 225.7 435.9 146.8 c 0
 435.9 68.8 374.5 1 289.4 1 c 0
EndSplineSet
EndChar

StartChar: periodcentered
Encoding: 183 183 299
Width: 398
VWidth: 0
Flags: HW
LayerCount: 2
UndoRedoHistory
Layer: 1
Undoes
EndUndoes
Redoes
EndRedoes
EndUndoRedoHistory
Fore
SplineSet
114 547 m 1
 114 707 l 1
 278 707 l 1
 278 547 l 1
 114 547 l 1
EndSplineSet
EndChar

StartChar: perthousand
Encoding: 8240 8240 300
Width: 2278
VWidth: 0
Flags: HW
LayerCount: 2
UndoRedoHistory
Layer: 1
Undoes
EndUndoes
Redoes
EndRedoes
EndUndoRedoHistory
Fore
SplineSet
1837 -29 m 0
 1625 -29 1520 121 1520 345 c 0
 1520 557 1626 716 1843 716 c 0
 2057 716 2159 572 2159 342 c 0
 2159 131 2052 -29 1837 -29 c 0
1843 91 m 0
 1972 91 2037 209 2037 345 c 0
 2037 484 1968 594 1840 594 c 0
 1707 594 1644 480 1644 345 c 0
 1644 202 1709 91 1843 91 c 0
1086 -29 m 0
 872 -29 767 121 767 345 c 0
 767 557 870 716 1088 716 c 0
 1306 716 1407 568 1407 342 c 0
 1407 131 1301 -29 1086 -29 c 0
1088 91 m 0
 1217 91 1282 211 1282 345 c 0
 1282 487 1221 594 1087 594 c 0
 958 594 895 480 895 345 c 0
 895 202 959 91 1088 91 c 0
263 -21 m 1
 1097 1507 l 1
 1250 1507 l 1
 395 -21 l 1
 263 -21 l 1
404 775 m 0
 219 775 116 925 116 1149 c 0
 116 1362 219 1518 406 1518 c 0
 595 1518 694 1373 694 1145 c 0
 694 934 588 775 404 775 c 0
408 895 m 0
 516 895 569 1012 569 1147 c 0
 569 1290 516 1401 404 1401 c 0
 294 1401 242 1284 242 1149 c 0
 242 1006 295 895 408 895 c 0
EndSplineSet
EndChar

StartChar: plus
Encoding: 43 43 301
Width: 1044
VWidth: 0
Flags: HW
LayerCount: 2
UndoRedoHistory
Layer: 1
Undoes
EndUndoes
Redoes
EndRedoes
EndUndoRedoHistory
Fore
SplineSet
457.5 141.1 m 1
 457.5 533.4 l 1
 78.5 533.4 l 1
 78.5 721 l 1
 459.3 721 l 1
 459.3 1112.3 l 1
 650.3 1112.3 l 1
 650.3 721 l 1
 1027.6 721 l 1
 1027.6 533.4 l 1
 649.4 533.4 l 1
 649.4 141.1 l 1
 457.5 141.1 l 1
EndSplineSet
EndChar

StartChar: plusminus
Encoding: 177 177 302
Width: 1134
VWidth: 0
Flags: HW
LayerCount: 2
UndoRedoHistory
Layer: 1
Undoes
EndUndoes
Redoes
EndRedoes
EndUndoRedoHistory
Fore
SplineSet
470 246.4 m 1
 470 602.7 l 1
 115.2 602.7 l 1
 115.2 799.3 l 1
 470 799.3 l 1
 470 1146.5 l 1
 661.9 1146.5 l 1
 661.9 799.3 l 1
 1015.8 799.3 l 1
 1015.8 602.7 l 1
 662.8 602.7 l 1
 662.8 246.4 l 1
 470 246.4 l 1
112.1 0 m 1
 112.1 175.9 l 1
 1022.3 175.9 l 1
 1022.3 0 l 1
 112.1 0 l 1
EndSplineSet
EndChar

StartChar: product
Encoding: 8719 8719 303
Width: 1428
VWidth: 0
Flags: HW
LayerCount: 2
UndoRedoHistory
Layer: 1
Undoes
EndUndoes
Redoes
EndRedoes
EndUndoRedoHistory
Fore
SplineSet
146 0 m 1
 146 1456 l 1
 1284 1456 l 1
 1284 0 l 1
 1112 0 l 1
 1112 1306 l 1
 319 1306 l 1
 319 0 l 1
 146 0 l 1
EndSplineSet
EndChar

StartChar: q
Encoding: 113 113 304
Width: 1242
VWidth: 0
Flags: HW
LayerCount: 2
UndoRedoHistory
Layer: 1
Undoes
EndUndoes
Redoes
EndRedoes
EndUndoRedoHistory
Fore
SplineSet
598.2 174.7 m 0
 758.7 174.7 843.1 275.5 845.5 524.7 c 1
 845.5 785.4 759.5 894.7 595.7 894.7 c 0
 449.8 894.7 356.2 781.6 356.2 536.1 c 0
 356.2 294.7 447.1 174.7 598.2 174.7 c 0
836.5 -433.2 m 1
 836.5 4.4 l 1
 839.94635736 110.006236236 l 1
 770.201636351 28.7706120168 678.125307893 -19 553.4 -19 c 0
 280.7 -19 102.1 211.4 102.1 536.6 c 0
 102.1 856.7 261.7 1091.1 549.5 1091.1 c 0
 702.468819402 1091.1 792.988211682 1024.48727774 851.268627814 949.678725143 c 1
 866.8 1065.8 l 1
 1090.6 1065.8 l 1
 1090.6 -419.1 l 1
 836.5 -433.2 l 1
EndSplineSet
EndChar

StartChar: question
Encoding: 63 63 305
Width: 963
VWidth: 0
Flags: HW
LayerCount: 2
UndoRedoHistory
Layer: 1
Undoes
EndUndoes
Redoes
EndRedoes
EndUndoRedoHistory
Fore
SplineSet
458.5 -7.8 m 0
 374.4 -7.8 310.2 60.5 310.2 139.7 c 0
 310.2 218.9 373.5 288 458.5 288 c 0
 541.8 288 600.9 218.9 600.9 139.7 c 0
 600.9 61.2 541.8 -7.8 458.5 -7.8 c 0
514.9 439.6 m 1
 402.9 439.6 l 1
 434.4 708 662 907 662 1081.9 c 0
 661.1 1188.3 593.9 1252.2 479 1252.2 c 0
 359 1252.2 279.3 1206.4 225.7 1173.2 c 1
 155.4 1338.2 l 1
 247.3 1399.9 352.9 1438 503.1 1438 c 0
 674.6 1438 868 1333.7 868 1111.9 c 0
 868 875.4 651.6 728.9 514.9 439.6 c 1
EndSplineSet
EndChar

StartChar: quotedbl
Encoding: 34 34 307
Width: 744
VWidth: 0
Flags: HW
LayerCount: 2
UndoRedoHistory
Layer: 1
Undoes
EndUndoes
Redoes
EndRedoes
EndUndoRedoHistory
Fore
SplineSet
147.8 910.8 m 1
 113.9 1426.9 l 1
 330.4 1426.9 l 1
 301.5 910.8 l 1
 147.8 910.8 l 1
492.4 910.8 m 1
 458.5 1426.9 l 1
 675.1 1426.9 l 1
 646.1 910.8 l 1
 492.4 910.8 l 1
EndSplineSet
EndChar

StartChar: quotedblbase
Encoding: 8222 8222 308
Width: 855
VWidth: 0
Flags: HW
LayerCount: 2
UndoRedoHistory
Layer: 1
Undoes
EndUndoes
Redoes
EndRedoes
EndUndoRedoHistory
Fore
SplineSet
454.7 -242.9 m 1
 563.2 233.1 l 1
 782.8 233.1 l 1
 627.9 -242.9 l 1
 454.7 -242.9 l 1
139.6 -242.9 m 1
 243 233.1 l 1
 463.8 233.1 l 1
 307.8 -242.9 l 1
 139.6 -242.9 l 1
EndSplineSet
EndChar

StartChar: quotedblleft
Encoding: 8220 8220 309
Width: 665
VWidth: 0
Flags: HW
LayerCount: 2
UndoRedoHistory
Layer: 1
Undoes
EndUndoes
Redoes
EndRedoes
EndUndoRedoHistory
Fore
SplineSet
500.1 962.6 m 1
 346.6 1289.9 l 1
 542.5 1461.9 l 1
 653.8 1136.2 l 1
 500.1 962.6 l 1
218.9 962.6 m 1
 57.6 1289.9 l 1
 260.8 1461 l 1
 368.5 1136.2 l 1
 218.9 962.6 l 1
EndSplineSet
EndChar

StartChar: quotedblright
Encoding: 8221 8221 310
Width: 818
VWidth: 0
Flags: HW
LayerCount: 2
UndoRedoHistory
Layer: 1
Undoes
EndUndoes
Redoes
EndRedoes
EndUndoRedoHistory
Fore
SplineSet
420.7 1039.8 m 1
 516 1435.1 l 1
 730.8 1435.1 l 1
 578.9 1039.8 l 1
 420.7 1039.8 l 1
92.6 1039.3 m 1
 196.7 1435.1 l 1
 402.5 1435.1 l 1
 260 1039.3 l 1
 92.6 1039.3 l 1
EndSplineSet
EndChar

StartChar: quoteleft
Encoding: 8216 8216 311
Width: 395
VWidth: 0
Flags: HW
LayerCount: 2
UndoRedoHistory
Layer: 1
Undoes
EndUndoes
Redoes
EndRedoes
EndUndoRedoHistory
Fore
SplineSet
208.1 1026.2 m 1
 68.3 1422.9 l 1
 271.2 1422.9 l 1
 370.2 1026.2 l 1
 208.1 1026.2 l 1
EndSplineSet
EndChar

StartChar: quoteright
Encoding: 8217 8217 312
Width: 393
VWidth: 0
Flags: HW
LayerCount: 2
UndoRedoHistory
Layer: 1
Undoes
EndUndoes
Redoes
EndRedoes
EndUndoRedoHistory
Fore
SplineSet
59.6 1026.2 m 1
 161.1 1422.9 l 1
 375.7 1422.9 l 1
 225.2 1026.2 l 1
 59.6 1026.2 l 1
EndSplineSet
EndChar

StartChar: quotesinglbase
Encoding: 8218 8218 313
Width: 480
VWidth: 0
Flags: HW
LayerCount: 2
UndoRedoHistory
Layer: 1
Undoes
EndUndoes
Redoes
EndRedoes
EndUndoRedoHistory
Fore
SplineSet
100.4 -242.9 m 1
 202.6 233.1 l 1
 418.6 233.1 l 1
 267.1 -242.9 l 1
 100.4 -242.9 l 1
EndSplineSet
EndChar

StartChar: quotesingle
Encoding: 39 39 314
Width: 489
VWidth: 0
Flags: HW
LayerCount: 2
UndoRedoHistory
Layer: 1
Undoes
EndUndoes
Redoes
EndRedoes
EndUndoRedoHistory
Fore
SplineSet
183.1 885.7 m 1
 152.3 1412.1 l 1
 360.1 1412.1 l 1
 335.3 885.7 l 1
 183.1 885.7 l 1
EndSplineSet
EndChar

StartChar: r
Encoding: 114 114 315
Width: 846
VWidth: 0
Flags: HW
HStem: 974 94
VStem: 193 122 193 92
LayerCount: 2
UndoRedoHistory
Layer: 1
Undoes
EndUndoes
Redoes
EndRedoes
EndUndoRedoHistory
Fore
SplineSet
155 0 m 1
 155 1065.8 l 1
 368.5 1065.8 l 1
 395.509007885 901.284372227 l 1
 489.374598894 1019.20132798 610.899182094 1071.6 718.1 1071.6 c 0
 742.9 1071.6 765.7 1071.4 793 1065.7 c 1
 788.6 851.7 l 1
 755 857.6 728.9 859.7 702.6 859.7 c 0
 521 859.7 409.3 748.8 409.3 581.9 c 2
 409.3 0 l 1
 155 0 l 1
EndSplineSet
EndChar

StartChar: radical
Encoding: 8730 8730 317
Width: 1241
VWidth: 0
Flags: HW
LayerCount: 2
UndoRedoHistory
Layer: 1
Undoes
EndUndoes
Redoes
EndRedoes
EndUndoRedoHistory
Fore
SplineSet
597 -162 m 1
 273 723 l 1
 124 693 l 1
 109 811 l 1
 363 866 l 1
 597 224 l 1
 655 43 l 1
 787 587 918 1128 1051 1672 c 1
 1161 1672 l 1
 732 -162 l 1
 597 -162 l 1
EndSplineSet
EndChar

StartChar: registered
Encoding: 174 174 320
Width: 1563
VWidth: 0
Flags: HW
LayerCount: 2
UndoRedoHistory
Layer: 1
Undoes
EndUndoes
Redoes
EndRedoes
EndUndoRedoHistory
Fore
SplineSet
780.6 -10.3 m 0
 387.4 -10.3 42.2 283.8 42.2 719.1 c 0
 42.2 1154.4 386.5 1449.6 779.7 1449.6 c 0
 1174.7 1449.6 1521.2 1153.5 1521.2 719.1 c 0
 1521.2 283.8 1175.6 -10.3 780.6 -10.3 c 0
780.6 99 m 0
 1130.4 99 1395.3 366.4 1395.3 718.2 c 0
 1395.3 1070 1130.4 1339.3 779.7 1339.3 c 0
 432.6 1339.3 168.1 1070.1 168.1 719.1 c 0
 168.1 366.3 433.5 99 780.6 99 c 0
633.8 789.8 m 1
 763.9 789.8 l 2
 896.2 789.8 963.5 810.8 963.5 922.5 c 0
 963.5 1038.8 898.9 1045.9 751.6 1045.9 c 2
 633.8 1045.9 l 1
 633.8 789.8 l 1
482.7 261.3 m 1
 482.7 1178.5 l 1
 788.3 1178.5 l 2
 988 1178.5 1114.8 1107.5 1114.8 925.7 c 0
 1114.8 791.9 1062.9 711.2 922.8 678.3 c 1
 974.1 609.9 1157.4 261.3 1157.4 261.3 c 1
 987.5 261.3 l 1
 987.5 261.3 804.1 628.4 775.3 657.2 c 1
 634.6 657.2 l 1
 634.6 261.3 l 1
 482.7 261.3 l 1
EndSplineSet
EndChar

StartChar: rho
Encoding: 961 961 321
Width: 1122
VWidth: 0
Flags: HW
LayerCount: 2
UndoRedoHistory
Layer: 1
Undoes
EndUndoes
Redoes
EndRedoes
EndUndoRedoHistory
Fore
SplineSet
636.2 175.6 m 0
 780.7 175.6 872.8 301.2 872.8 539.3 c 0
 872.8 783.3 778.9 895.8 633 895.8 c 0
 476.7 895.8 389 791.9 387.3 554.6 c 1
 387.3 287.1 471.5 175.6 636.2 175.6 c 0
136.3 -433.2 m 1
 136.3 1066.6 l 1
 355.3 1066.6 l 1
 378.3 940.2 l 1
 439.7 1022.8 565.4 1091.2 701.4 1091.2 c 0
 967.7 1091.2 1124.6 847.5 1124.6 536.6 c 0
 1124.6 216.5 957 -19.6 683.5 -19.6 c 0
 559.1 -19.6 454 31.8 384 110.7 c 1
 387.1 59.9 389 12 389 -23.1 c 2
 389 -420.7 l 1
 136.3 -433.2 l 1
EndSplineSet
EndChar

StartChar: ring
Encoding: 730 730 322
Width: 585
VWidth: 0
Flags: HW
LayerCount: 2
UndoRedoHistory
Layer: 1
Undoes
EndUndoes
Redoes
EndRedoes
EndUndoRedoHistory
Fore
SplineSet
292.5 1110.5 m 0
 161.6 1110.5 81.1 1205.7 81.1 1312.3 c 0
 81.1 1418.9 160.7 1513.2 292.5 1513.2 c 0
 426.1 1513.2 503.9 1418 503.9 1312.3 c 0
 503.9 1205.7 423.4 1110.5 292.5 1110.5 c 0
292.5 1212.2 m 0
 350.2 1212.2 383.5 1258.1 383.5 1312.2 c 0
 383.5 1363.6 350.2 1411.2 292.5 1411.2 c 0
 236.6 1411.2 202.5 1362.7 202.5 1312.2 c 0
 202.5 1257.2 233 1212.2 292.5 1212.2 c 0
EndSplineSet
EndChar

StartChar: s
Encoding: 115 115 323
Width: 1000
VWidth: 0
Flags: HW
HStem: -19 92 982 92
VStem: 142 107 738 104
LayerCount: 2
UndoRedoHistory
Layer: 1
Undoes
EndUndoes
Redoes
EndRedoes
EndUndoRedoHistory
Fore
SplineSet
511.6 -18.1 m 0
 312.8 -18.1 162.8 63.1 139.7 80.4 c 1
 200.5 254.5 l 1
 243.8 228.3 397.4 164.8 506.9 164.8 c 0
 615.2 164.8 672.2 206.5 676.7 286.3 c 0
 682.1 376.6 647.2 408.5 522.5 441.7 c 2
 418.9 469.3 l 2
 234.1 518.6 148.2 612.8 147.3 777 c 0
 147.3 974.2 303.9 1091.1 520.7 1091.1 c 0
 648.5 1091.1 760.1 1063.5 866 1010.3 c 1
 807.9 840.1 l 1
 750.3 866.3 660.1 905.5 547.2 905.5 c 0
 426.4 905.5 372.2 858.4 372.2 792.9 c 0
 372.2 726.4 405.5 689.6 545.7 651.8 c 2
 625.2 630.4 l 2
 818.5 578.6 902.2 481.7 902.2 315 c 0
 902.2 101.2 759 -18.1 511.6 -18.1 c 0
EndSplineSet
EndChar

StartChar: section
Encoding: 167 167 329
Width: 991
VWidth: 0
Flags: HW
LayerCount: 2
UndoRedoHistory
Layer: 1
Undoes
EndUndoes
Redoes
EndRedoes
EndUndoRedoHistory
Fore
SplineSet
628 547 m 1
 692 581 759 616 759 758 c 0
 759 859 662 898 526 952 c 1
 394 1003 l 1
 329 979 257 902 257 797 c 0
 257 683 350 658 510 594 c 2
 628 547 l 1
854 271 m 0
 854 69 672 -18 470 -18 c 0
 364 -18 252 5 159 48 c 1
 193 135 l 1
 272 93 378 67 475 67 c 0
 623 67 752 126 752 278 c 0
 752 389 680 435 482 503 c 0
 281 573 153 632 153 792 c 0
 153 908 223 986 318 1035 c 1
 215 1093 164 1158 164 1274 c 0
 164 1462 341 1545 538 1545 c 0
 634 1545 736 1524 823 1487 c 1
 792 1405 l 1
 722 1438 629 1458 540 1458 c 0
 399 1458 270 1408 270 1282 c 0
 270 1139 377 1109 564 1034 c 1
 774 951 862 904 862 746 c 0
 862 630 820 554 708 507 c 1
 799 456 854 380 854 271 c 0
EndSplineSet
EndChar

StartChar: semicolon
Encoding: 59 59 330
Width: 620
VWidth: 0
Flags: HW
LayerCount: 2
UndoRedoHistory
Layer: 1
Undoes
EndUndoes
Redoes
EndRedoes
EndUndoRedoHistory
Fore
SplineSet
194 -300.8 m 1
 246.3 248.3 l 1
 470.9 248.3 l 1
 349 -300.8 l 1
 194 -300.8 l 1
212.1 806.9 m 1
 212.1 1065.8 l 1
 467.7 1065.8 l 1
 467.7 806.9 l 1
 212.1 806.9 l 1
EndSplineSet
EndChar

StartChar: seven
Encoding: 55 55 331
Width: 1207
VWidth: 0
Flags: HW
LayerCount: 2
UndoRedoHistory
Layer: 1
Undoes
EndUndoes
Redoes
EndRedoes
EndUndoRedoHistory
Fore
SplineSet
324.9 0.1 m 1
 760.3 1208.3 l 1
 169.6 1208.3 l 1
 166.8 1422.9 l 1
 1052.5 1422.9 l 1
 1052.5 1247.4 l 1
 601.4 0.1 l 1
 324.9 0.1 l 1
EndSplineSet
EndChar

StartChar: six
Encoding: 54 54 332
Width: 1207
VWidth: 0
Flags: HW
LayerCount: 2
UndoRedoHistory
Layer: 1
Undoes
EndUndoes
Redoes
EndRedoes
EndUndoRedoHistory
Fore
SplineSet
616.7 177.8 m 0
 782.8 177.8 873.9 283.7 873.9 433.1 c 0
 873.9 587.7 793.1 688.9 620.2 688.9 c 0
 453.3 688.9 370.9 591.2 370.9 430.5 c 0
 370.9 281.4 454.8 177.8 616.7 177.8 c 0
625.9 -19 m 0
 323 -19 113.3 168.4 113.3 441.5 c 0
 113.3 630.5 201.3 760.7 308.3 906 c 1
 680.1 1422.9 l 1
 983.1 1422.9 l 1
 661.1 977.5 l 2
 655.257781117 968.902913676 615.259224398 915.320531682 574.869313287 861.426359565 c 1
 603.377109966 870.62908546 634.660072873 877 667.2 877 c 0
 930.9 877 1134.3 698.3 1134.3 436.7 c 0
 1134.3 164.3 917.2 -19 625.9 -19 c 0
EndSplineSet
EndChar

StartChar: slash
Encoding: 47 47 333
Width: 892
VWidth: 0
Flags: HW
LayerCount: 2
UndoRedoHistory
Layer: 1
Undoes
EndUndoes
Redoes
EndRedoes
EndUndoRedoHistory
Fore
SplineSet
64.8 -138.5 m 1
 657.5 1418.6 l 1
 867.7 1418.6 l 1
 271.2 -138.5 l 1
 64.8 -138.5 l 1
EndSplineSet
EndChar

StartChar: sterling
Encoding: 163 163 335
Width: 1025
VWidth: 0
Flags: HW
LayerCount: 2
UndoRedoHistory
Layer: 1
Undoes
EndUndoes
Redoes
EndRedoes
EndUndoRedoHistory
Fore
SplineSet
82.1 16.6 m 1
 71.9 203.9 l 1
 238.4 225.1 l 1
 238.4 638.9 l 1
 64.1 638.9 l 1
 64.1 818 l 1
 238.4 818 l 1
 238.4 917.1 l 2
 238.4 1214.7 345.7 1441.1 661 1441.1 c 0
 807.5 1441.1 929 1388.9 1023.4 1309.2 c 1
 919.5 1145.8 l 1
 837.8 1203.3 762.9 1237.6 670.4 1237.6 c 0
 528.5 1237.6 474.4 1144.4 474.4 985.6 c 2
 474.4 818 l 1
 840.6 818 l 1
 840.6 639.7 l 1
 474.4 639.7 l 1
 474.4 227.1 l 1
 1040.8 227.1 l 1
 1033.8 16.6 l 1
 82.1 16.6 l 1
EndSplineSet
EndChar

StartChar: summation
Encoding: 8721 8721 336
Width: 1133
VWidth: 0
Flags: HW
LayerCount: 2
UndoRedoHistory
Layer: 1
Undoes
EndUndoes
Redoes
EndRedoes
EndUndoRedoHistory
Fore
SplineSet
55.9 -318.2 m 1
 55.9 -194.8 l 1
 626.9 553.5 l 1
 75.3 1286.1 l 1
 75.3 1415.1 l 1
 1113.1 1415.1 l 1
 1113.1 1225.5 l 1
 368.5 1225.5 l 1
 872.7 560.6 l 1
 343.7 -123 l 1
 1153.7 -123 l 1
 1153.7 -318.2 l 1
 55.9 -318.2 l 1
EndSplineSet
EndChar

StartChar: t
Encoding: 116 116 337
Width: 891
VWidth: 0
Flags: HW
HStem: -11 83
VStem: 244 122 286 80
LayerCount: 2
UndoRedoHistory
Layer: 1
Undoes
EndUndoes
Redoes
EndRedoes
EndUndoRedoHistory
Fore
SplineSet
603.7 -13.7 m 0
 335.7 -13.7 231.4 122.4 231.4 394.2 c 2
 231.4 904.7 l 1
 64.5 904.7 l 1
 78 1053.1 l 1
 244.87710932 1064.52595123 l 1
 305.8 1330 l 1
 485.7 1330.6 l 1
 485.7 1065.8 l 1
 778.2 1065.8 l 1
 778.2 903.8 l 1
 485.7 903.8 l 1
 485.7 383 l 2
 485.7 211.2 552 175.6 656.1 175.6 c 0
 710 175.6 817.5 189.2 817.5 189.2 c 1
 817.5 17.6 l 1
 817.5 17.6 733.8 -13.7 603.7 -13.7 c 0
EndSplineSet
EndChar

StartChar: tbar
Encoding: 359 359 338
Width: 872
VWidth: 0
Flags: HW
LayerCount: 2
UndoRedoHistory
Layer: 1
Undoes
EndUndoes
Redoes
EndRedoes
EndUndoRedoHistory
Fore
SplineSet
565 -19 m 0
 305 -19 285 108 285 433 c 2
 285 622 l 1
 134 622 l 1
 134 744 l 1
 285 744 l 1
 285 954 l 1
 122 954 l 1
 135 1069 l 1
 285 1069 l 1
 327 1311 l 1
 448 1319 l 1
 448 1069 l 1
 731 1069 l 1
 731 954 l 1
 448 954 l 1
 448 744 l 1
 652 744 l 1
 652 622 l 1
 448 622 l 1
 448 357 l 2
 448 157 471 114 602 114 c 0
 620 114 660 120 735 125 c 1
 750 -6 l 1
 628 -17 598 -19 565 -19 c 0
EndSplineSet
EndChar

StartChar: three
Encoding: 51 51 341
Width: 1207
VWidth: 0
Flags: HW
LayerCount: 2
UndoRedoHistory
Layer: 1
Undoes
EndUndoes
Redoes
EndRedoes
EndUndoRedoHistory
Fore
SplineSet
591 -25.3 m 0
 443.4 -25.3 294.6 18.6 175.4 97.8 c 1
 252.7 279.7 l 1
 349.3 221.6 461.4 189.5 560.5 189.5 c 0
 705 189.5 813.5 256.5 813.5 396.9 c 0
 813.5 594.5 669.3 636.6 443.4 641.6 c 1
 383.3 641.6 l 1
 383.3 840.7 l 1
 443.6 840.7 l 1
 640.8 842.5 787.2 879.8 787.2 1044.2 c 0
 787.2 1147.5 709.1 1238.8 561.3 1238.8 c 0
 441.1 1238.8 331 1202.6 250.5 1151.1 c 1
 176.1 1337 l 1
 284.4 1403.8 411.9 1441 581.9 1441 c 0
 839.6 1441 1043.2 1289.3 1043.2 1062.8 c 0
 1043.2 911.8 968.4 803.4 832.1 749.4 c 1
 989.3 704.7 1080.2 555.4 1080.2 385.7 c 0
 1080.2 115.5 855.2 -25.3 591 -25.3 c 0
EndSplineSet
EndChar

StartChar: threequarters
Encoding: 190 190 342
Width: 1501
VWidth: 0
Flags: HW
LayerCount: 2
UndoRedoHistory
Layer: 1
Undoes
EndUndoes
Redoes
EndRedoes
EndUndoRedoHistory
Fore
SplineSet
1048.3 328.7 m 1
 1223.2 328.7 l 1
 1223.2 611.7 l 1
 1048.3 328.7 l 1
239.8 18 m 1
 1191.5 1423.3 l 1
 1388.5 1423.3 l 1
 442.3 18 l 1
 239.8 18 l 1
1225 18.1 m 1
 1225 188.8 l 1
 850.5 188.8 l 1
 850.5 325.9 l 1
 1214.1 858.7 l 1
 1387.8 858.7 l 1
 1387.8 328.7 l 1
 1495.7 328.7 l 1
 1498.5 188.8 l 1
 1386.7 188.8 l 1
 1385.8 18.1 l 1
 1225 18.1 l 1
307.1 593.6 m 0
 222.5 593.6 128.5 620.3 59.9 672.8 c 1
 117.5 797.1 l 1
 158.8 760 239.2 739.2 298.6 739.2 c 0
 376.7 739.2 426.8 774.9 426.8 853 c 0
 426.8 923.6 368.8 956.7 263.9 956.7 c 1
 182.2 955.8 l 1
 182.2 1098.9 l 1
 264.3 1098.9 l 2
 366.8 1098.9 405.3 1135.6 405.3 1190.9 c 0
 405.3 1241.7 372.3 1275.5 303.1 1275.5 c 0
 237 1275.5 158.7 1249.8 120.4 1221 c 1
 51.8 1332 l 1
 116.4 1388.6 219.5 1421.8 315.9 1421.8 c 0
 447.7 1421.8 580.9 1351.9 580.9 1197.2 c 0
 580.9 1172 566.9 1080.9 476.3 1040.4 c 1
 544.5 1006.8 599.9 937.4 599.9 850.7 c 0
 599.9 680.8 458.9 593.6 307.1 593.6 c 0
EndSplineSet
EndChar

StartChar: tilde
Encoding: 732 732 343
Width: 716
VWidth: 0
Flags: HW
HStem: 1301 88 1400 79
VStem: 169 63 657 67
LayerCount: 2
UndoRedoHistory
Layer: 1
Undoes
EndUndoes
Redoes
EndRedoes
EndUndoRedoHistory
Fore
SplineSet
175.3 1175 m 1
 50.2 1175 l 1
 50.2 1294.1 98.7 1418.7 245 1418.7 c 0
 374.9 1418.7 461.7 1340.4 516.9 1340.4 c 0
 543.6 1340.4 562.9 1358.8 576 1418.6 c 1
 701.5 1418.6 l 1
 701.5 1306.4 655.3 1175 521.1 1175 c 0
 412 1175 313.6 1268.6 248.4 1268.6 c 0
 215.1 1268.6 190.1 1244 175.3 1175 c 1
EndSplineSet
EndChar

StartChar: trademark
Encoding: 8482 8482 344
Width: 1628
VWidth: 0
Flags: HW
LayerCount: 2
UndoRedoHistory
Layer: 1
Undoes
EndUndoes
Redoes
EndRedoes
EndUndoRedoHistory
Fore
SplineSet
301.2 618.9 m 1
 301.2 1264.7 l 1
 63.6 1264.7 l 1
 62.8 1418.4 l 1
 697.4 1418.4 l 1
 697.4 1264.7 l 1
 463.9 1264.7 l 1
 463.9 618.9 l 1
 301.2 618.9 l 1
751.2 618.9 m 1
 751.2 1418.4 l 1
 958.3 1418.4 l 1
 1163.9 886.8 l 1
 1379 1418.4 l 1
 1572.2 1418.4 l 1
 1572.2 618.9 l 1
 1413 618.9 l 1
 1413 1132.4 l 1
 1210.3 642.9 l 1
 1104.2 642.9 l 1
 912.6 1125 l 1
 912.6 618.9 l 1
 751.2 618.9 l 1
EndSplineSet
EndChar

StartChar: two
Encoding: 50 50 345
Width: 1207
VWidth: 0
Flags: HW
LayerCount: 2
UndoRedoHistory
Layer: 1
Undoes
EndUndoes
Redoes
EndRedoes
EndUndoRedoHistory
Fore
SplineSet
185.1 0 m 1
 176.4 204.7 l 1
 624.7 708.7 l 1
 714.2 807.6 780 923 780 1022.7 c 0
 780 1168.3 678.7 1213.6 570.5 1213.6 c 0
 458 1213.6 327.9 1164.8 261.3 1115.3 c 1
 186.5 1313 l 1
 286 1387.8 446.7 1440.1 601.1 1440.1 c 0
 817.6 1440.1 1036.4 1335.1 1036.4 1035.3 c 0
 1036.4 863 953.5 718 776.1 526.6 c 1
 474.651094891 198.4 l 1
 1030.4 198.4 l 1
 1013.7 0 l 1
 185.1 0 l 1
EndSplineSet
EndChar

StartChar: u
Encoding: 117 117 346
Width: 1257
VWidth: 0
Flags: HW
LayerCount: 2
UndoRedoHistory
Layer: 1
Undoes
EndUndoes
Redoes
EndRedoes
EndUndoRedoHistory
Fore
SplineSet
1104.7 1065.8 m 1
 1104.7 0 l 1
 900.2 0 l 1
 876.675043072 123.262997458 l 1
 795.424324262 12.8885666349 677.736912458 -25.3 518.2 -25.3 c 0
 271.7 -25.3 144 120 144 397.4 c 2
 144 1065.8 l 1
 398.3 1065.8 l 1
 398.3 419.7 l 2
 398.2 260.5 452.1 170.2 601.2 170.2 c 0
 784.7 170.2 851.3 291.2 851.3 510.6 c 2
 851.3 1065.8 l 1
 1104.7 1065.8 l 1
EndSplineSet
EndChar

StartChar: underscore
Encoding: 95 95 355
Width: 1018
VWidth: 0
Flags: HW
LayerCount: 2
UndoRedoHistory
Layer: 1
Undoes
EndUndoes
Redoes
EndRedoes
EndUndoRedoHistory
Fore
SplineSet
55.7 -194.8 m 1
 55.7 -20.2 l 1
 1006.5 -20.2 l 1
 1006.5 -194.8 l 1
 55.7 -194.8 l 1
EndSplineSet
EndChar

StartChar: uni00AD
Encoding: 173 173 358
Width: 695
VWidth: 0
Flags: HW
LayerCount: 2
UndoRedoHistory
Layer: 1
Undoes
EndUndoes
Redoes
EndRedoes
EndUndoRedoHistory
Fore
SplineSet
71.1 343 m 1
 71.1 544.5 l 1
 669.1 544.5 l 1
 669.1 343 l 1
 71.1 343 l 1
EndSplineSet
EndChar

StartChar: uni00B2
Encoding: 178 178 359
Width: 730
VWidth: 0
Flags: HW
LayerCount: 2
UndoRedoHistory
Layer: 1
Undoes
EndUndoes
Redoes
EndRedoes
EndUndoRedoHistory
Fore
SplineSet
622 649 m 1
 107 649 l 1
 107 739 l 1
 347 980 521 1132 521 1254 c 0
 521 1360 453 1406 376 1406 c 0
 294 1406 214 1370 150 1284 c 1
 79 1343 l 1
 130 1439 251 1504 364 1504 c 0
 519 1504 633 1422 633 1263 c 0
 633 1074 462 940 250 746 c 1
 622 746 l 1
 622 649 l 1
EndSplineSet
EndChar

StartChar: uni00B3
Encoding: 179 179 360
Width: 717
VWidth: 0
Flags: HW
LayerCount: 2
UndoRedoHistory
Layer: 1
Undoes
EndUndoes
Redoes
EndRedoes
EndUndoRedoHistory
Fore
SplineSet
368.4 569.3 m 0
 283.8 569.3 191.6 596.9 122.1 649.4 c 1
 177.8 777.3 l 1
 220 737.5 306.8 712.2 366.2 712.2 c 0
 444.3 712.2 495.3 750.6 495.3 833.2 c 0
 495.3 910.1 430.9 948.6 325.1 948.6 c 1
 243.5 947.7 l 1
 243.5 1089.9 l 1
 326.5 1089.9 l 2
 429 1089.9 468.4 1126.6 468.4 1185.5 c 0
 468.4 1239.9 436.2 1278.2 367.9 1278.2 c 0
 301.8 1278.2 220.9 1249.8 182.6 1221 c 1
 126.6 1334.7 l 1
 191.2 1389.5 282.5 1421.8 377.1 1421.8 c 0
 513.4 1421.8 639.5 1351 639.5 1187.3 c 1
 637.7 1118.9 605.7 1059.3 530.4 1026.9 c 1
 599.5 992.4 657.6 921.2 657.6 831.8 c 0
 657.6 660.1 522 569.3 368.4 569.3 c 0
EndSplineSet
EndChar

StartChar: uni00B9
Encoding: 185 185 362
Width: 676
VWidth: 0
Flags: HW
LayerCount: 2
UndoRedoHistory
Layer: 1
Undoes
EndUndoes
Redoes
EndRedoes
EndUndoRedoHistory
Fore
SplineSet
143.8 575 m 1
 143.8 728.8 l 1
 282.8 728.8 l 1
 282.8 1233.3 l 1
 246.7 1215.5 134 1163.3 128.5 1162.1 c 1
 128.5 1326.8 l 1
 133.4 1327.9 324.7 1429.1 328.6 1433 c 1
 475.7 1432.1 l 1
 475.7 728.8 l 1
 611.7 728.8 l 1
 611.7 575 l 1
 143.8 575 l 1
EndSplineSet
EndChar

StartChar: uni0237
Encoding: 567 567 448
Width: 546
VWidth: 0
Flags: HW
HStem: -479 112
VStem: 111 142
LayerCount: 2
UndoRedoHistory
Layer: 1
Undoes
EndUndoes
Redoes
EndRedoes
EndUndoRedoHistory
Fore
SplineSet
-10.4 -406.1 m 1
 -41.7 -213.1 l 1
 22.5 -213.1 l 2
 175.4 -213.1 183.9 -170.7 183.9 -17.1 c 2
 183.9 1068.7 l 1
 437.6 1068.7 l 1
 437.6 18.8 l 2
 437.6 -269.2 374.3 -406.1 51.7 -406.1 c 2
 -10.4 -406.1 l 1
EndSplineSet
EndChar

StartChar: uni02BC
Encoding: 700 700 449
Width: 359
VWidth: 0
Flags: HW
LayerCount: 2
UndoRedoHistory
Layer: 1
Undoes
EndUndoes
Redoes
EndRedoes
EndUndoRedoHistory
Fore
SplineSet
101.8 945.1 m 1
 111.9 1441 l 1
 313.3 1441 l 1
 246.7 945.1 l 1
 101.8 945.1 l 1
EndSplineSet
EndChar

StartChar: uni0307
Encoding: 775 775 450
Width: 435
VWidth: 0
Flags: HW
LayerCount: 2
UndoRedoHistory
Layer: 1
Undoes
EndUndoes
Redoes
EndRedoes
EndUndoRedoHistory
Fore
SplineSet
135.1 1167.5 m 1
 135.1 1384.3 l 1
 335 1384.3 l 1
 335 1167.5 l 1
 135.1 1167.5 l 1
EndSplineSet
EndChar

StartChar: uni030F
Encoding: 783 783 451
Width: 695
VWidth: 0
Flags: HW
LayerCount: 2
UndoRedoHistory
Layer: 1
Undoes
EndUndoes
Redoes
EndRedoes
EndUndoRedoHistory
Fore
SplineSet
393 1297 m 1
 334 1297 l 1
 108 1599 l 1
 241 1599 l 1
 393 1297 l 1
582 1297 m 1
 526 1297 l 1
 351 1599 l 1
 473 1599 l 1
 582 1297 l 1
EndSplineSet
EndChar

StartChar: uni0311
Encoding: 785 785 452
Width: 633
VWidth: 0
Flags: HW
LayerCount: 2
UndoRedoHistory
Layer: 1
Undoes
EndUndoes
Redoes
EndRedoes
EndUndoRedoHistory
Fore
SplineSet
59.8 1191 m 1
 59.8 1350.4 199.7 1424.5 336.9 1424.5 c 0
 472.5 1424.5 610.5 1351.2 610.5 1191 c 1
 444.2 1191 l 1
 444.2 1258 391.2 1287.7 333.6 1287.7 c 0
 276.7 1287.7 225.9 1257.2 225.9 1191 c 1
 59.8 1191 l 1
EndSplineSet
EndChar

StartChar: uni031B
Encoding: 795 795 453
Width: 511
VWidth: 0
Flags: HW
LayerCount: 2
UndoRedoHistory
Layer: 1
Undoes
EndUndoes
Redoes
EndRedoes
EndUndoRedoHistory
Fore
SplineSet
203.7 506 m 1
 319.8 506 l 1
 347.5 443.2 365.6 382.1 365.6 331.3 c 0
 365.6 236.9 310.6 168.6 166.2 168.6 c 0
 148.1 168.6 130.6 169.8 111.3 171.9 c 1
 111.3 274.3 l 1
 112.3 274.2 120.4 274.1 121.3 274.1 c 0
 205.4 274.1 231.5 322.4 231.5 380.6 c 0
 231.5 419.6 220.3 464.4 203.7 506 c 1
EndSplineSet
EndChar

StartChar: uni0326
Encoding: 806 806 454
Width: 297
VWidth: 0
Flags: HW
LayerCount: 2
UndoRedoHistory
Layer: 1
Undoes
EndUndoes
Redoes
EndRedoes
EndUndoRedoHistory
Fore
SplineSet
51 -664 m 1
 132 -196 l 1
 235 -196 l 1
 117 -664 l 1
 51 -664 l 1
EndSplineSet
EndChar

StartChar: uni040A
Encoding: 1034 1034 462
Width: 2065
VWidth: 0
Flags: HW
LayerCount: 2
UndoRedoHistory
Layer: 1
Undoes
EndUndoes
Redoes
EndRedoes
EndUndoRedoHistory
Fore
SplineSet
1044.6 0 m 1
 1044.6 617 l 1
 454.1 617 l 1
 454.1 0 l 1
 170.1 0 l 1
 170.1 1407.6 l 1
 454.1 1407.6 l 1
 454.1 826.4 l 1
 1044.6 826.4 l 1
 1044.6 1407.6 l 1
 1328.6 1407.6 l 1
 1328.42640382 826.4 l 1
 1582.5 826.4 l 2
 1903.6 826.4 2097.5 707.9 2097.5 413.9 c 0
 2097.5 123.4 1878.4 0 1576.9 0 c 2
 1044.6 0 l 1
1329.3 617 m 1
 1329.3 212.9 l 1
 1543.3 212.9 l 2
 1711.6 212.9 1814.3 262.7 1814.3 416.4 c 0
 1814.3 566.9 1736.4 617 1566.2 617 c 2
 1329.3 617 l 1
EndSplineSet
EndChar

StartChar: uni040B
Encoding: 1035 1035 463
Width: 1544
VWidth: 0
Flags: HW
HStem: 697 94<628 934 934 936 628 934>
VStem: 1256 120
LayerCount: 2
UndoRedoHistory
Layer: 1
Undoes
EndUndoes
Redoes
EndRedoes
EndUndoRedoHistory
Fore
SplineSet
1255 0 m 1
 1255 403 l 2
 1255 628 1145 697 936 697 c 2
 628 697 l 1
 628 0 l 1
 506 0 l 1
 506 1361 l 1
 58 1361 l 1
 58 1449 l 1
 1082 1449 l 1
 1082 1361 l 1
 628 1361 l 1
 628 791 l 1
 934 791 l 2
 1242 791 1377 658 1377 404 c 2
 1377 0 l 1
 1255 0 l 1
EndSplineSet
EndChar

StartChar: uni040F
Encoding: 1039 1039 465
Width: 1523
VWidth: 0
Flags: HW
LayerCount: 2
UndoRedoHistory
Layer: 1
Undoes
EndUndoes
Redoes
EndRedoes
EndUndoRedoHistory
Fore
SplineSet
1299 1449 m 1
 1299 0 l 1
 841 0 l 1
 841 -294 l 1
 719 -294 l 1
 719 0 l 1
 225 0 l 1
 225 1449 l 1
 347 1449 l 1
 347 87 l 1
 1177 87 l 1
 1177 1449 l 1
 1299 1449 l 1
EndSplineSet
EndChar

StartChar: uni0411
Encoding: 1041 1041 467
Width: 1235
VWidth: 0
Flags: HW
LayerCount: 2
UndoRedoHistory
Layer: 1
Undoes
EndUndoes
Redoes
EndRedoes
EndUndoRedoHistory
Fore
SplineSet
168.8 0 m 1
 168.8 1422.8 l 1
 1092.7 1422.8 l 1
 1092.7 1212.7 l 1
 452.8 1212.7 l 1
 452.8 829.9 l 1
 730.3 829.9 l 2
 1051.4 829.9 1245.2 709.1 1245.2 415.1 c 0
 1245.2 124.6 1027.1 0 725.6 0 c 2
 168.8 0 l 1
452.8 616.1 m 1
 452.8 213.7 l 1
 691.1 213.7 l 2
 858.3 213.7 960.3 261 960.3 414.7 c 0
 960.3 565.2 883.4 616.1 714 616.1 c 2
 452.8 616.1 l 1
EndSplineSet
EndChar

StartChar: uni0414
Encoding: 1044 1044 468
Width: 1463
VWidth: 0
Flags: HW
HStem: 0 88<138 187 261 1151 1233 1257 138 138>
LayerCount: 2
UndoRedoHistory
Layer: 1
Undoes
EndUndoes
Redoes
EndRedoes
EndUndoRedoHistory
Fore
SplineSet
27 -294 m 1
 27 88 l 1
 187 88 l 1
 279 153 321 376 377 1090 c 1
 404 1448 l 1
 1233 1448 l 1
 1233 88 l 1
 1366 88 l 1
 1366 -294 l 1
 1257 -294 l 1
 1257 0 l 1
 138 0 l 1
 138 -294 l 1
 27 -294 l 1
516.081333729 1360.08391248 m 1
 491 1079 l 1
 455.634784364 636.050674155 428.868120757 256.417958709 336.059823176 88 c 1
 1112 88 l 1
 1111.04364022 1360.91486542 l 1
 516.081333729 1360.08391248 l 1
EndSplineSet
EndChar

StartChar: uni041B
Encoding: 1051 1051 472
Width: 1469
VWidth: 0
Flags: HW
LayerCount: 2
UndoRedoHistory
Layer: 1
Undoes
EndUndoes
Redoes
EndRedoes
EndUndoRedoHistory
Fore
SplineSet
-104.6 -24.7 m 1
 -104.6 201.3 l 1
 -31 201.3 l 2
 145.4 201.3 183.4 340.1 183.4 460.2 c 2
 183.4 1407.6 l 1
 1365 1407.5 l 1
 1364.8 -0.2 l 1
 1081 -0.1 l 1
 1081 1195.4106287 l 1
 467.4 1195.48968049 l 1
 467.4 471.5 l 2
 467.4 144.9 299.7 -24.7 5.9 -24.7 c 2
 -104.6 -24.7 l 1
EndSplineSet
EndChar

StartChar: uni041F
Encoding: 1055 1055 476
Width: 1461
VWidth: 0
Flags: HW
LayerCount: 2
UndoRedoHistory
Layer: 1
Undoes
EndUndoes
Redoes
EndRedoes
EndUndoRedoHistory
Fore
SplineSet
170.1 0 m 1
 170.1 1407.6 l 1
 1357.5 1407.6 l 1
 1357.5 0 l 1
 1073.5 0 l 1
 1073.5 1195.5 l 1
 454.1 1195.5 l 1
 454.1 0 l 1
 170.1 0 l 1
EndSplineSet
EndChar

StartChar: uni0423
Encoding: 1059 1059 480
Width: 1335
VWidth: 0
Flags: HW
LayerCount: 2
UndoRedoHistory
Layer: 1
Undoes
EndUndoes
Redoes
EndRedoes
EndUndoRedoHistory
Fore
SplineSet
718.197387082 609.463698049 m 1
 1101 1440 l 1
 1217 1440 l 1
 532 0 l 1
 417 0 l 1
 667.083931763 508.725868796 l 1
 158 1440 l 1
 273 1440 l 1
 718.197387082 609.463698049 l 1
EndSplineSet
EndChar

StartChar: uni0424
Encoding: 1060 1060 481
Width: 1602
VWidth: 0
Flags: HW
LayerCount: 2
UndoRedoHistory
Layer: 1
Undoes
EndUndoes
Redoes
EndRedoes
EndUndoRedoHistory
Fore
SplineSet
964.6 358.9 m 1
 1234.4 374.1 1366.9 529.5 1366.9 720.8 c 0
 1366.9 904.6 1237.7 1059.2 964.6 1074.4 c 1
 964.6 358.9 l 1
721.9 359.2 m 1
 721.9 1074.2 l 1
 457.2 1057.7 324.7 905.2 324.7 720.8 c 0
 324.7 531.3 454.7 375.7 721.9 359.2 c 1
723.6 0 m 1
 721.9 147.2 l 1
 340.3 164 72.6 392.1 72.6 723.3 c 0
 72.6 1046.1 337 1269.2 721.9 1286 c 1
 723.6 1409.2 l 1
 964.6 1409.2 l 1
 964.6 1286.3 l 1
 1343.7 1273.4 1618.1 1055.4 1618.1 723.3 c 0
 1618.1 386.3 1347 161.7 964.6 147 c 1
 964.6 0 l 1
 723.6 0 l 1
EndSplineSet
EndChar

StartChar: uni0427
Encoding: 1063 1063 483
Width: 1523
VWidth: 0
Flags: HW
LayerCount: 2
UndoRedoHistory
Layer: 1
Undoes
EndUndoes
Redoes
EndRedoes
EndUndoRedoHistory
Fore
SplineSet
973.2 14.1 m 1
 972.3 551.6 l 1
 927.9 534.1 723.6 524.9 699.7 524.9 c 0
 381.3 524.9 152.2 601.1 152.2 934.2 c 2
 152.2 1398.2 l 1
 375 1398.2 l 1
 375 957.4 l 2
 375 766.5 470.2 729.9 682.9 729.9 c 0
 705.1 729.9 942.7 750 973.2 761.6 c 1
 973.2 1398.2 l 1
 1209.2 1398.2 l 1
 1209.2 14.1 l 1
 973.2 14.1 l 1
EndSplineSet
EndChar

StartChar: uni0428
Encoding: 1064 1064 484
Width: 1714
VWidth: 0
Flags: HW
LayerCount: 2
UndoRedoHistory
Layer: 1
Undoes
EndUndoes
Redoes
EndRedoes
EndUndoRedoHistory
Fore
SplineSet
164.3 0 m 1
 164.3 1422.8 l 1
 426.7 1422.8 l 1
 426.7 194.9 l 1
 777.4 194.9 l 1
 777.4 1422.8 l 1
 1039.9 1422.8 l 1
 1039.9 194.9 l 1
 1362.8 194.9 l 1
 1362.8 1422.8 l 1
 1627 1422.8 l 1
 1627 0 l 1
 164.3 0 l 1
EndSplineSet
EndChar

StartChar: uni0429
Encoding: 1065 1065 485
Width: 1755
VWidth: 0
Flags: HW
LayerCount: 2
UndoRedoHistory
Layer: 1
Undoes
EndUndoes
Redoes
EndRedoes
EndUndoRedoHistory
Fore
SplineSet
1533.3 -313.7 m 1
 1532.5 0 l 1
 168.8 0 l 1
 168.8 1422.8 l 1
 431.2 1422.8 l 1
 431.2 194.9 l 1
 781.9 194.9 l 1
 781.9 1422.8 l 1
 1044.4 1422.8 l 1
 1044.4 194.9 l 1
 1368.1 194.9 l 1
 1368.1 1422.8 l 1
 1631.5 1422.8 l 1
 1631.5 123.3 l 1
 1760.6 123.3 l 1
 1760.6 -313.7 l 1
 1533.3 -313.7 l 1
EndSplineSet
EndChar

StartChar: uni042A
Encoding: 1066 1066 486
Width: 1353
VWidth: 0
Flags: HW
LayerCount: 2
UndoRedoHistory
Layer: 1
Undoes
EndUndoes
Redoes
EndRedoes
EndUndoRedoHistory
Fore
SplineSet
205.5 0 m 1
 205.5 1197.54478528 l 1
 -42.3 1197.4 l 1
 -41.4 1406.7 l 1
 490.4 1406.7 l 1
 489.610583942 829.9 l 1
 732.1 829.9 l 2
 1053.2 829.9 1246.9 709.1 1246.9 415.1 c 0
 1246.9 124.6 1028.8 0 727.3 0 c 2
 205.5 0 l 1
489.5 618.8 m 1
 489.5 213.7 l 1
 692.8 213.7 l 2
 860 213.7 962 263.7 962 417.4 c 0
 962 567.9 885.2 618.8 715.8 618.8 c 2
 489.5 618.8 l 1
EndSplineSet
EndChar

StartChar: uni042B
Encoding: 1067 1067 487
Width: 1769
VWidth: 0
Flags: HW
LayerCount: 2
UndoRedoHistory
Layer: 1
Undoes
EndUndoes
Redoes
EndRedoes
EndUndoRedoHistory
Fore
SplineSet
225 0 m 1
 225 1448 l 1
 347 1448 l 1
 347 820 l 1
 692 820 l 2
 1086 820 1170 629 1170 416 c 0
 1170 193 1095 0 699 0 c 2
 225 0 l 1
1423 0 m 1
 1423 1449 l 1
 1545 1449 l 1
 1545 0 l 1
 1423 0 l 1
347 725 m 1
 347 94 l 1
 705 94 l 2
 955 94 1048 189 1048 412 c 0
 1048 639 963 725 691 725 c 2
 347 725 l 1
EndSplineSet
EndChar

StartChar: uni042C
Encoding: 1068 1068 488
Width: 1269
VWidth: 0
Flags: HW
LayerCount: 2
UndoRedoHistory
Layer: 1
Undoes
EndUndoes
Redoes
EndRedoes
EndUndoRedoHistory
Fore
SplineSet
168.8 0 m 1
 168.8 1405.7 l 1
 453.7 1406.6 l 1
 452.91060076 829.9 l 1
 713.2 829.9 l 2
 1034.3 829.9 1228.1 709.1 1228.1 415.1 c 0
 1228.1 124.6 1010 0 708.5 0 c 2
 168.8 0 l 1
452.8 618.8 m 1
 452.8 213.7 l 1
 674 213.7 l 2
 841.2 213.7 943.2 263.7 943.2 417.4 c 0
 943.2 567.9 866.3 618.8 696.9 618.8 c 2
 452.8 618.8 l 1
EndSplineSet
EndChar

StartChar: uni0431
Encoding: 1073 1073 490
Width: 1076
VWidth: 0
Flags: HW
LayerCount: 2
UndoRedoHistory
Layer: 1
Undoes
EndUndoes
Redoes
EndRedoes
EndUndoRedoHistory
Fore
SplineSet
561 72 m 0
 804 72 874 194 874 434 c 0
 874 598 766 746 607 746 c 0
 555 746 395 732 248 588 c 1
 196 192 412 72 561 72 c 0
565 -20 m 0
 62 -20 116 536 116 521 c 1
 116 916 285 1175 893 1210 c 1
 890 1133 l 1
 622 1117 310 1078 230 685 c 1
 376 755 419 819 607 819 c 0
 849 819 958 573 958 419 c 0
 958 193 814 -20 565 -20 c 0
EndSplineSet
EndChar

StartChar: uni0432
Encoding: 1074 1074 491
Width: 1122
VWidth: 0
Flags: HW
HStem: 0 85<315 633 633 638> 506 90<315 677 677 682 315 677> 970 85<315 638 315 315>
VStem: 865 120 900 120<242 345.5 238 347>
LayerCount: 2
UndoRedoHistory
Layer: 1
Undoes
EndUndoes
Redoes
EndRedoes
EndUndoRedoHistory
Fore
SplineSet
315 596 m 1
 677 596 l 2
 840 596 865 696 865 784 c 0
 865 892 816 970 638 970 c 2
 315 970 l 1
 315 596 l 1
315 85 m 1
 633 85 l 2
 867 85 900 183 900 301 c 0
 900 393 899 506 682 506 c 2
 315 506 l 1
 315 85 l 1
193 0 m 1
 193 1055 l 1
 640 1055 l 2
 914 1055 984 912 984 789 c 0
 984 666 920 594 815 562 c 1
 980 517 1020 390 1020 301 c 0
 1020 175 964 0 638 0 c 2
 193 0 l 1
EndSplineSet
EndChar

StartChar: uni0433
Encoding: 1075 1075 492
Width: 914
VWidth: 0
Flags: HW
VStem: 193 667
LayerCount: 2
UndoRedoHistory
Layer: 1
Undoes
EndUndoes
Redoes
EndRedoes
EndUndoRedoHistory
Fore
SplineSet
193 0 m 1
 193 1055 l 1
 859 1055 l 1
 859 961 l 1
 315 961 l 1
 315 0 l 1
 193 0 l 1
EndSplineSet
EndChar

StartChar: uni0434
Encoding: 1076 1076 493
Width: 1241
VWidth: 0
Flags: HW
LayerCount: 2
UndoRedoHistory
Layer: 1
Undoes
EndUndoes
Redoes
EndRedoes
EndUndoRedoHistory
Fore
SplineSet
297 74 m 1
 918 74 l 1
 918 988 l 1
 535 988 l 1
 536 1015 435 373 437 393 c 1
 400 219 339 80 297 74 c 1
61 -275 m 1
 61 76 l 1
 164 76 l 1
 246 100 267 175 304 278 c 1
 444 1057 l 1
 1050 1057 l 1
 1050 76 l 1
 1111 76 l 1
 1111 -275 l 1
 1007 -275 l 1
 1019 0 l 1
 148 0 l 1
 154 -275 l 1
 61 -275 l 1
EndSplineSet
EndChar

StartChar: uni0436
Encoding: 1078 1078 495
Width: 1538
VWidth: 0
Flags: HW
LayerCount: 2
UndoRedoHistory
Layer: 1
Undoes
EndUndoes
Redoes
EndRedoes
EndUndoRedoHistory
Fore
SplineSet
61 0 m 1
 603 546 l 1
 64 1057 l 1
 170 1057 l 1
 691 551 l 1
 691 1057 l 1
 821 1057 l 1
 821 551 l 1
 1346 1057 l 1
 1450 1057 l 1
 912 546 l 1
 1453 0 l 1
 1335 0 l 1
 821 524 l 1
 821 0 l 1
 691 0 l 1
 691 524 l 1
 180 0 l 1
 61 0 l 1
EndSplineSet
EndChar

StartChar: uni0438
Encoding: 1080 1080 496
Width: 1164
VWidth: 0
Flags: HW
LayerCount: 2
UndoRedoHistory
Layer: 1
Undoes
EndUndoes
Redoes
EndRedoes
EndUndoRedoHistory
Fore
SplineSet
172 0 m 1
 172 1055 l 1
 272 1055 l 1
 272 157 l 1
 875 967 l 1
 875 1055 l 1
 977 1055 l 1
 977 0 l 1
 875 0 l 1
 875 812 l 1
 271 0 l 1
 172 0 l 1
EndSplineSet
EndChar

StartChar: uni043A
Encoding: 1082 1082 498
Width: 1200
VWidth: 0
Flags: HW
LayerCount: 2
UndoRedoHistory
Layer: 1
Undoes
EndUndoes
Redoes
EndRedoes
EndUndoRedoHistory
Fore
SplineSet
208 0 m 1
 208 1055 l 1
 337 1055 l 1
 337 547 l 1
 804 1054 l 1
 967 1056 l 1
 475 528 l 1
 1024 0 l 1
 877 0 l 1
 337 516 l 1
 337 0 l 1
 208 0 l 1
EndSplineSet
EndChar

StartChar: uni043B
Encoding: 1083 1083 499
Width: 1219
VWidth: 0
Flags: HW
HStem: -7 101
LayerCount: 2
UndoRedoHistory
Layer: 1
Undoes
EndUndoes
Redoes
EndRedoes
EndUndoRedoHistory
Fore
SplineSet
43 -7 m 1
 25 93 l 1
 201 93 267 135 314 489 c 1
 379 1055 l 1
 1027 1055 l 1
 1027 -1 l 1
 898 -1 l 1
 898 962 l 1
 490 962 l 1
 428 477 l 1
 379 63 291 -7 43 -7 c 1
EndSplineSet
EndChar

StartChar: uni043C
Encoding: 1084 1084 500
Width: 1359
VWidth: 0
Flags: HW
LayerCount: 2
UndoRedoHistory
Layer: 1
Undoes
EndUndoes
Redoes
EndRedoes
EndUndoRedoHistory
Fore
SplineSet
193 0 m 1
 193 1055 l 1
 302 1055 l 1
 683 291 l 1
 1061 1055 l 1
 1167 1055 l 1
 1167 0 l 1
 1054 0 l 1
 1054 819 l 1
 727 162 l 1
 636 162 l 1
 306 819 l 1
 306 0 l 1
 193 0 l 1
EndSplineSet
EndChar

StartChar: uni043D
Encoding: 1085 1085 501
Width: 1246
VWidth: 0
Flags: HW
LayerCount: 2
UndoRedoHistory
Layer: 1
Undoes
EndUndoes
Redoes
EndRedoes
EndUndoRedoHistory
Fore
SplineSet
193 0 m 1
 193 1055 l 1
 315 1055 l 1
 315 608 l 1
 932 608 l 1
 932 1055 l 1
 1054 1055 l 1
 1054 0 l 1
 932 0 l 1
 932 513 l 1
 315 513 l 1
 315 0 l 1
 193 0 l 1
EndSplineSet
EndChar

StartChar: uni043F
Encoding: 1087 1087 503
Width: 1218
VWidth: 0
Flags: HW
LayerCount: 2
UndoRedoHistory
Layer: 1
Undoes
EndUndoes
Redoes
EndRedoes
EndUndoRedoHistory
Fore
SplineSet
193 0 m 1
 193 1055 l 1
 1026 1055 l 1
 1026 0 l 1
 904 0 l 1
 904 963 l 1
 315 963 l 1
 315 0 l 1
 193 0 l 1
EndSplineSet
EndChar

StartChar: uni0442
Encoding: 1090 1090 506
Width: 1025
VWidth: 0
Flags: HW
LayerCount: 2
UndoRedoHistory
Layer: 1
Undoes
EndUndoes
Redoes
EndRedoes
EndUndoRedoHistory
Fore
SplineSet
435 0 m 1
 435 954 l 1
 136 954 l 1
 136 1055 l 1
 875 1055 l 1
 875 954 l 1
 571 954 l 1
 571 0 l 1
 435 0 l 1
EndSplineSet
EndChar

StartChar: uni0443
Encoding: 1091 1091 507
Width: 1118
VWidth: 0
Flags: HW
LayerCount: 2
UndoRedoHistory
Layer: 1
Undoes
EndUndoes
Redoes
EndRedoes
EndUndoRedoHistory
Fore
SplineSet
251 -304 m 1
 251 -203 l 1
 548 -203 586 -184 584 28 c 2
 582.719712707 147.066718232 l 1
 118 1055 l 1
 242 1055 l 1
 630.413793103 283.774535809 l 1
 946 1055 l 1
 1066 1055 l 1
 694.752704556 147.611305805 l 1
 696 26 l 2
 699 -246 660 -304 251 -304 c 1
EndSplineSet
EndChar

StartChar: uni0444
Encoding: 1092 1092 508
Width: 1473
VWidth: 0
Flags: HW
LayerCount: 2
UndoRedoHistory
Layer: 1
Undoes
EndUndoes
Redoes
EndRedoes
EndUndoRedoHistory
Fore
SplineSet
959 134 m 0
 1115 134 1213 331 1213 541 c 0
 1213 754 1132 928 975 928 c 0
 904 928 819 917 748 878 c 1
 748 179 l 1
 815 140 892 134 959 134 c 0
434 134 m 0
 499 134 581 142 645 175 c 1
 645 885 l 1
 572 924 484 929 417 929 c 0
 258 929 181 754 181 542 c 0
 181 332 275 134 434 134 c 0
645 -381 m 1
 645 80 l 1
 584 52 499 43 428 43 c 0
 226 43 63 249 63 541 c 0
 63 833 207 1019 418 1019 c 0
 484 1019 584 998 645 970 c 1
 645 1304 l 1
 748 1304 l 1
 748 970 l 1
 812 999 902 1019 973 1019 c 0
 1183 1019 1330 834 1330 542 c 0
 1330 252 1167 43 963 43 c 0
 892 43 807 52 748 80 c 1
 748 -381 l 1
 645 -381 l 1
EndSplineSet
EndChar

StartChar: uni0446
Encoding: 1094 1094 510
Width: 1198
VWidth: 0
Flags: HW
LayerCount: 2
UndoRedoHistory
Layer: 1
Undoes
EndUndoes
Redoes
EndRedoes
EndUndoRedoHistory
Fore
SplineSet
953 -275 m 1
 968 0 l 1
 208 0 l 1
 208 1057 l 1
 335 1057 l 1
 335 77 l 1
 890 77 l 1
 890 1057 l 1
 1019 1057 l 1
 1019 135 l 1
 1114 135 l 1
 1114 -275 l 1
 953 -275 l 1
EndSplineSet
EndChar

StartChar: uni0447
Encoding: 1095 1095 511
Width: 1032
VWidth: 0
Flags: HW
LayerCount: 2
UndoRedoHistory
Layer: 1
Undoes
EndUndoes
Redoes
EndRedoes
EndUndoRedoHistory
Fore
SplineSet
745.1 0 m 1
 745.1 444.6 l 1
 695.6 396 597.5 362.7 480.5 362.7 c 1
 196.6 365.4 66.5 522.6 66.5 796.1 c 2
 66.5 1065.8 l 1
 311.7 1065.8 l 1
 311.7 837.2 l 2
 311.7 679.4 340.9 560 519.9 560 c 0
 657.6 560 739.7 640.1 745.1 689.6 c 1
 745.1 1065.8 l 1
 991 1065.8 l 1
 991 0 l 1
 745.1 0 l 1
EndSplineSet
EndChar

StartChar: uni0448
Encoding: 1096 1096 512
Width: 1491
VWidth: 0
Flags: HW
LayerCount: 2
UndoRedoHistory
Layer: 1
Undoes
EndUndoes
Redoes
EndRedoes
EndUndoRedoHistory
Fore
SplineSet
289 0 m 1
 289 1055 l 1
 412 1055 l 1
 412 76 l 1
 735 76 l 1
 735 1055 l 1
 840 1055 l 1
 840 76 l 1
 1162 76 l 1
 1162 1055 l 1
 1287 1055 l 1
 1287 0 l 1
 289 0 l 1
EndSplineSet
EndChar

StartChar: uni0449
Encoding: 1097 1097 513
Width: 1446
VWidth: 0
Flags: HW
LayerCount: 2
UndoRedoHistory
Layer: 1
Undoes
EndUndoes
Redoes
EndRedoes
EndUndoRedoHistory
Fore
SplineSet
1203 -280 m 1
 1214 0 l 1
 210 0 l 1
 210 1057 l 1
 349 1057 l 1
 349 77 l 1
 696 77 l 1
 696 1057 l 1
 837 1057 l 1
 837 77 l 1
 1124 77 l 1
 1124 1057 l 1
 1265 1057 l 1
 1265 134 l 1
 1361 134 l 1
 1361 -280 l 1
 1203 -280 l 1
EndSplineSet
EndChar

StartChar: uni044A
Encoding: 1098 1098 514
Width: 1028
VWidth: 0
Flags: HW
LayerCount: 2
UndoRedoHistory
Layer: 1
Undoes
EndUndoes
Redoes
EndRedoes
EndUndoRedoHistory
Fore
SplineSet
356 85 m 1
 574 85 l 2
 729 85 771 242 771 349 c 0
 771 462 716 578 567 578 c 2
 356 578 l 1
 356 85 l 1
228 0 m 1
 228 978 l 1
 82 978 l 1
 82 1055 l 1
 357 1055 l 1
 357 671 l 1
 557 671 l 2
 859 671 916 490 916 347 c 0
 916 194 848 0 559 0 c 2
 228 0 l 1
EndSplineSet
EndChar

StartChar: uni044B
Encoding: 1099 1099 515
Width: 1506
VWidth: 0
Flags: HW
HStem: 0 85<314 570> 576 92<315 568 568 577 314 568>
VStem: 819 117
LayerCount: 2
UndoRedoHistory
Layer: 1
Undoes
EndUndoes
Redoes
EndRedoes
EndUndoRedoHistory
Fore
SplineSet
1192 0 m 1
 1192 1055 l 1
 1314 1055 l 1
 1314 0 l 1
 1192 0 l 1
314 85 m 1
 574 85 l 2
 730 85 819 166 819 347 c 0
 819 503 728 576 577 576 c 2
 314 576 l 1
 314 85 l 1
193 0 m 1
 193 1055 l 1
 315 1055 l 1
 315 668 l 1
 568 668 l 2
 871 668 935 487 935 345 c 0
 935 192 870 0 570 0 c 2
 193 0 l 1
EndSplineSet
EndChar

StartChar: uni044C
Encoding: 1100 1100 516
Width: 1018
VWidth: 0
Flags: HW
HStem: 0 85<314 570> 576 92<315 568 568 577 314 568>
VStem: 819 117
LayerCount: 2
UndoRedoHistory
Layer: 1
Undoes
EndUndoes
Redoes
EndRedoes
EndUndoRedoHistory
Fore
SplineSet
314 85 m 1
 574 85 l 2
 730 85 819 166 819 347 c 0
 819 503 728 576 577 576 c 2
 314 576 l 1
 314 85 l 1
193 0 m 1
 193 1055 l 1
 315 1055 l 1
 315 668 l 1
 568 668 l 2
 871 668 935 487 935 345 c 0
 935 192 870 0 570 0 c 2
 193 0 l 1
EndSplineSet
EndChar

StartChar: uni044D
Encoding: 1101 1101 517
Width: 1195
VWidth: 0
Flags: HW
LayerCount: 2
UndoRedoHistory
Layer: 1
Undoes
EndUndoes
Redoes
EndRedoes
EndUndoRedoHistory
Fore
SplineSet
499 -28 m 0
 361 -28 231 9 179 66 c 1
 210 144 l 1
 319 82 411 64 492 64 c 0
 736 64 895 243 911 474 c 1
 470 474 l 1
 470 575 l 1
 911 575 l 1
 894 813 766 997 487 997 c 0
 371 997 287 960 207 912 c 1
 170 988 l 1
 243 1054 384 1087 485 1087 c 0
 902 1087 1014 771 1014 511 c 0
 1014 277 872 -28 499 -28 c 0
EndSplineSet
EndChar

StartChar: uni044E
Encoding: 1102 1102 518
Width: 1520
VWidth: 0
Flags: HW
LayerCount: 2
UndoRedoHistory
Layer: 1
Undoes
EndUndoes
Redoes
EndRedoes
EndUndoRedoHistory
Fore
SplineSet
915 64 m 0
 1169 64 1235 292 1235 525 c 0
 1235 765 1179 995 910 995 c 0
 652 995 577 752 577 520 c 0
 577 293 655 64 915 64 c 0
910 -28 m 0
 600 -28 476 191 471 483 c 1
 260 483 l 1
 260 0 l 1
 172 0 l 1
 172 1055 l 1
 260 1055 l 1
 260 567 l 1
 471 567 l 1
 477 855 603 1087 915 1087 c 0
 1253 1087 1338 834 1338 528 c 0
 1338 236 1241 -28 910 -28 c 0
EndSplineSet
EndChar

StartChar: uni044F
Encoding: 1103 1103 519
Width: 1136
VWidth: 0
Flags: HW
HStem: 0 22 432 89<510 822 510 822 504 822> 969 86<383.5 944 489 822>
VStem: 124 117<697 798 677.5 822.5> 822 122<0 432 432 432 521 969 969 969>
LayerCount: 2
UndoRedoHistory
Layer: 1
Undoes
EndUndoes
Redoes
EndRedoes
EndUndoRedoHistory
Fore
SplineSet
510 521 m 2
 822 521 l 1
 822 969 l 1
 489 969 l 2
 278 969 241 851 241 745 c 0
 241 610 336 521 510 521 c 2
181 0 m 1
 381 439 l 1
 186 487 124 642 124 752 c 0
 124 893 218 1055 489 1055 c 2
 944 1055 l 1
 944 0 l 1
 822 0 l 1
 822 432 l 1
 504 432 l 1
 310 0 l 1
 181 0 l 1
EndSplineSet
EndChar

StartChar: uni0452
Encoding: 1106 1106 522
Width: 1334
VWidth: 0
Flags: HW
LayerCount: 2
UndoRedoHistory
Layer: 1
Undoes
EndUndoes
Redoes
EndRedoes
EndUndoRedoHistory
Fore
SplineSet
794 -280 m 1
 783 -152 l 1
 819 -152 l 2
 996 -152 1018 -117 1018 95 c 2
 1018 355 l 2
 1018 599 985 724 791 724 c 0
 614 724 472 585 444 479 c 1
 444 0 l 1
 294 0 l 1
 294 1072 l 1
 201 1072 l 1
 201 1173 l 1
 294 1173 l 1
 294 1465 l 1
 444 1465 l 1
 444 1173 l 1
 861 1173 l 1
 861 1072 l 1
 444 1072 l 1
 444 671 l 1
 535 789 652 860 806 860 c 0
 1056 860 1170 707 1170 427 c 2
 1170 147 l 2
 1170 -153 1149 -280 860 -280 c 2
 794 -280 l 1
EndSplineSet
EndChar

StartChar: uni045A
Encoding: 1114 1114 528
Width: 1499
VWidth: 0
Flags: HW
HStem: 0 86 516 86
VStem: 1447 103
LayerCount: 2
UndoRedoHistory
Layer: 1
Undoes
EndUndoes
Redoes
EndRedoes
EndUndoRedoHistory
Fore
SplineSet
985.3 189.5 m 1
 1162.2 189.5 l 2
 1269.1 189.5 1321.9 260.1 1321.9 345 c 0
 1321.9 425.6 1267.6 489 1161.3 489 c 2
 985.3 489 l 1
 985.3 189.5 l 1
103 0 m 1
 103 1066 l 1
 349.2 1066 l 1
 349.2 666.7 l 1
 742.8 666.7 l 1
 742.8 1066 l 1
 985.3 1066 l 1
 985.3 667.6 l 1
 1173.1 667.6 l 2
 1392.8 667.6 1531.9 558.9 1531.9 339.5 c 0
 1531.9 144.5 1389.2 0 1172.2 0 c 2
 742.8 0 l 1
 742.8 464.7 l 1
 349.2 464.7 l 1
 349.2 0 l 1
 103 0 l 1
EndSplineSet
EndChar

StartChar: uni045F
Encoding: 1119 1119 532
Width: 1025
VWidth: 0
Flags: HW
LayerCount: 2
UndoRedoHistory
Layer: 1
Undoes
EndUndoes
Redoes
EndRedoes
EndUndoRedoHistory
Fore
SplineSet
455.4 -310.5 m 1
 447.1 0 l 1
 100.9 0 l 1
 100.9 1065.8 l 1
 343.7 1065.8 l 1
 343.7 190.4 l 1
 741.1 190.4 l 1
 741.1 1065.8 l 1
 983.1 1065.8 l 1
 983.1 0 l 1
 668.1 0 l 1
 657.3 -310.5 l 1
 455.4 -310.5 l 1
EndSplineSet
EndChar

StartChar: uni2074
Encoding: 8308 8308 551
Width: 758
VWidth: 0
Flags: HW
LayerCount: 2
UndoRedoHistory
Layer: 1
Undoes
EndUndoes
Redoes
EndRedoes
EndUndoRedoHistory
Fore
SplineSet
277.5 916.6 m 1
 404.5 916.6 l 1
 404.7 1127.3 l 1
 277.5 916.6 l 1
406.3 594.1 m 1
 406.3 761.9 l 1
 78.9 761.9 l 1
 78.9 883.6 l 1
 407.8 1397.2 l 1
 564.8 1397.2 l 1
 564.8 916.6 l 1
 659.2 916.6 l 1
 672.3 761.9 l 1
 563.6 761.9 l 1
 562.8 594.1 l 1
 406.3 594.1 l 1
EndSplineSet
EndChar

StartChar: uni2206
Encoding: 8710 8710 552
Width: 1358
VWidth: 0
Flags: HW
LayerCount: 2
UndoRedoHistory
Layer: 1
Undoes
EndUndoes
Redoes
EndRedoes
EndUndoRedoHistory
Fore
SplineSet
302 169 m 1
 1059 169 l 1
 710 1163 l 1
 676 1278 l 1
 644 1163 l 1
 302 169 l 1
106 0 m 1
 106 83 l 1
 588 1500 l 1
 774 1500 l 1
 1255 83 l 1
 1255 0 l 1
 106 0 l 1
EndSplineSet
EndChar

StartChar: v
Encoding: 118 118 561
Width: 1135
VWidth: 0
Flags: HW
LayerCount: 2
UndoRedoHistory
Layer: 1
Undoes
EndUndoes
Redoes
EndRedoes
EndUndoRedoHistory
Fore
SplineSet
455.8 0 m 1
 40 1065.8 l 1
 308.6 1065.8 l 1
 510.5 489.8 l 1
 581.097111487 274.961842833 l 1
 641.7 489.3 l 1
 830.8 1065.8 l 1
 1095.8 1065.8 l 1
 700.9 0 l 1
 455.8 0 l 1
EndSplineSet
EndChar

StartChar: w
Encoding: 119 119 562
Width: 1643
VWidth: 0
Flags: HW
LayerCount: 2
UndoRedoHistory
Layer: 1
Undoes
EndUndoes
Redoes
EndRedoes
EndUndoRedoHistory
Fore
SplineSet
346.8 0 m 1
 42.2 1065.8 l 1
 289.1 1065.8 l 1
 480.960490218 294.487654599 l 1
 698.9 1065.8 l 1
 952.2 1065.8 l 1
 1161.91661808 302.945548329 l 1
 1358.6 1065.8 l 1
 1601.5 1065.8 l 1
 1288.1 0 l 1
 1046 0 l 1
 822.138438558 803.589265087 l 1
 588.9 0 l 1
 346.8 0 l 1
EndSplineSet
EndChar

StartChar: x
Encoding: 120 120 567
Width: 1142
VWidth: 0
Flags: HW
HStem: 0 22 1034 21
LayerCount: 2
UndoRedoHistory
Layer: 1
Undoes
EndUndoes
Redoes
EndRedoes
EndUndoRedoHistory
Fore
SplineSet
810.1 0 m 1
 559.504375138 354.223895196 l 1
 323 0 l 1
 39.5 0 l 1
 418.033421376 554.197028511 l 1
 56.1 1065.8 l 1
 342.3 1065.8 l 1
 578.335108518 733.260385118 l 1
 801.9 1065.8 l 1
 1085.4 1065.8 l 1
 719.804988466 533.949614399 l 1
 1098.8 0 l 1
 810.1 0 l 1
EndSplineSet
EndChar

StartChar: y
Encoding: 121 121 568
Width: 1121
VWidth: 0
Flags: HW
LayerCount: 2
UndoRedoHistory
Layer: 1
Undoes
EndUndoes
Redoes
EndRedoes
EndUndoRedoHistory
Fore
SplineSet
547.7 -395.5 m 1
 315.5 -362.6 l 1
 467.679673394 28.1202633704 l 1
 59.4 1065.8 l 1
 321.9 1065.8 l 1
 588.953701016 318.70275762 l 1
 821.9 1065.8 l 1
 1085.9 1065.8 l 1
 547.7 -395.5 l 1
EndSplineSet
EndChar

StartChar: yen
Encoding: 165 165 572
Width: 1253
VWidth: 0
Flags: HW
LayerCount: 2
UndoRedoHistory
Layer: 1
Undoes
EndUndoes
Redoes
EndRedoes
EndUndoRedoHistory
Fore
SplineSet
517 0 m 1
 517 226.5 l 1
 209.6 226.5 l 1
 209.6 390.5 l 1
 517 390.5 l 1
 517 511.6 l 1
 209.8 511.6 l 1
 209.8 667 l 1
 452.1 667 l 1
 48 1422.9 l 1
 345.5 1422.9 l 1
 654.5 788.8 l 1
 969.5 1422.9 l 1
 1262.6 1422.9 l 1
 860 667 l 1
 1105 667 l 1
 1105 511.6 l 1
 795.6 511.6 l 1
 795.6 390.5 l 1
 1105.2 390.5 l 1
 1105.2 226.5 l 1
 795.6 226.5 l 1
 795.6 0 l 1
 517 0 l 1
EndSplineSet
EndChar

StartChar: z
Encoding: 122 122 574
Width: 1004
VWidth: 0
Flags: HW
LayerCount: 2
UndoRedoHistory
Layer: 1
Undoes
EndUndoes
Redoes
EndRedoes
EndUndoRedoHistory
Fore
SplineSet
112.8 0 m 1
 112.8 157.6 l 1
 611.385074627 883.8 l 1
 135.6 883.8 l 1
 135.6 1065.8 l 1
 893.3 1065.8 l 1
 893.3 891 l 1
 417.760454898 190.1 l 1
 909.2 190.1 l 1
 909.2 0 l 1
 112.8 0 l 1
EndSplineSet
EndChar

StartChar: zero
Encoding: 48 48 578
Width: 1211
VWidth: 0
Flags: HW
LayerCount: 2
UndoRedoHistory
Layer: 1
Undoes
EndUndoes
Redoes
EndRedoes
EndUndoRedoHistory
Fore
SplineSet
632.8 -20.4 m 0
 253 -20.4 116.7 329.1 116.7 708.9 c 0
 116.7 1098.8 258.7 1440.6 632.8 1440.6 c 0
 1008.6 1440.6 1148.4 1096.3 1148.4 708.9 c 0
 1148.4 329.1 1013.5 -20.4 632.8 -20.4 c 0
632.8 183.1 m 0
 827.9 183.1 889.2 432.5 889.2 715.7 c 0
 889.2 997.3 827.9 1237.8 632.8 1237.8 c 0
 439.3 1237.8 375.9 995 374.3 718.2 c 1
 374.3 434.2 437.7 183.1 632.8 183.1 c 0
EndSplineSet
EndChar
